<svg version="1.1" xmlns="http://www.w3.org/2000/svg" xmlns:xlink="http://www.w3.org/1999/xlink" x="0px" y="0px" width="170px" height="170px" viewBox="0 0 170 170" enable-background="new 0 0 170 170" xml:space="preserve">
    <defs>
        <g id="agriculture">
            <ellipse cx="85.146" cy="61.016" rx="14.625" ry="11.979" />
            <ellipse transform="matrix(0.9376 -0.3478 0.3478 0.9376 -20.9793 43.3457)" cx="110.233" cy="80.103" rx="20.208" ry="8.76" />
            <ellipse transform="matrix(0.9376 -0.3478 0.3478 0.9376 -27.6861 44.5498)" cx="110.233" cy="99.384" rx="20.208" ry="8.761" />
            <ellipse transform="matrix(0.9376 -0.3478 0.3478 0.9376 -34.3922 45.7522)" cx="110.233" cy="118.666" rx="20.208" ry="8.76" />
            <ellipse transform="matrix(-0.9376 -0.3478 0.3478 -0.9376 87.9371 175.9925)" cx="59.766" cy="80.103" rx="20.208" ry="8.76" />
            <ellipse transform="matrix(-0.9376 -0.3478 0.3478 -0.9376 81.2303 213.351)" cx="59.766" cy="99.384" rx="20.208" ry="8.761" />
            <ellipse transform="matrix(-0.9376 -0.3478 0.3478 -0.9376 74.5249 250.7097)" cx="59.766" cy="118.666" rx="20.208" ry="8.76" />
            <path d="M85.083,73.828c-2.688,0-3,0.875-3,0.875v60.688c0,0,0.312,0.875,3,0.875s3-0.875,3-0.875V74.703
                    C88.083,74.703,87.771,73.828,85.083,73.828z" />
            <g>
                <path d="M42.349,75.25c-0.966,0-1.75-0.784-1.75-1.75V35.484c0-0.966,0.784-1.75,1.75-1.75s1.75,0.784,1.75,1.75
                        V73.5C44.099,74.466,43.315,75.25,42.349,75.25z" />
                <path d="M52.894,75.25c-0.966,0-1.75-0.784-1.75-1.75V35.484c0-0.966,0.784-1.75,1.75-1.75s1.75,0.784,1.75,1.75
                        V73.5C54.644,74.466,53.86,75.25,52.894,75.25z" />
                <path d="M63.438,75.25c-0.966,0-1.75-0.784-1.75-1.75V35.484c0-0.966,0.784-1.75,1.75-1.75s1.75,0.784,1.75,1.75
                        V73.5C65.188,74.466,64.405,75.25,63.438,75.25z" />
                <path d="M73.983,65.25c-0.966,0-1.75-0.784-1.75-1.75V35.484c0-0.966,0.784-1.75,1.75-1.75s1.75,0.784,1.75,1.75
                        V63.5C75.733,64.466,74.95,65.25,73.983,65.25z" />
                <path d="M84.528,65.25c-0.966,0-1.75-0.784-1.75-1.75V35.484c0-0.966,0.784-1.75,1.75-1.75s1.75,0.784,1.75,1.75
                        V63.5C86.278,64.466,85.495,65.25,84.528,65.25z" />
                <path d="M95.073,65.25c-0.966,0-1.75-0.784-1.75-1.75V35.484c0-0.966,0.784-1.75,1.75-1.75s1.75,0.784,1.75,1.75
                        V63.5C96.823,64.466,96.04,65.25,95.073,65.25z" />
                <path d="M105.618,75.25c-0.966,0-1.75-0.784-1.75-1.75V35.484c0-0.966,0.784-1.75,1.75-1.75s1.75,0.784,1.75,1.75
                        V73.5C107.368,74.466,106.584,75.25,105.618,75.25z" />
                <path d="M116.163,75.25c-0.966,0-1.75-0.784-1.75-1.75V35.484c0-0.966,0.784-1.75,1.75-1.75s1.75,0.784,1.75,1.75
                        V73.5C117.913,74.466,117.129,75.25,116.163,75.25z" />
                <path d="M126.708,75.25c-0.966,0-1.75-0.784-1.75-1.75V35.484c0-0.966,0.784-1.75,1.75-1.75s1.75,0.784,1.75,1.75
                        V73.5C128.458,74.466,127.674,75.25,126.708,75.25z" />
            </g>
        </g>
        <g id="biodiversite">
            <circle cx="84.787" cy="60.537" r="16.596" />
            <path d="M62.218,93.953c0.003,1.992,0.208,3.94,0.563,5.833h43.963c0.351-1.894,0.552-3.841,0.555-5.833H62.218z" />
            <path d="M104.566,78.287c-3.821-10.177-11.258-17.083-19.808-17.083c-8.549,0-15.986,6.906-19.807,17.083H104.566
                        z" />
            <path d="M102.914,110.537c0.984-1.837,1.847-3.789,2.543-5.834H64.086c0.705,2.045,1.577,3.997,2.572,5.834
                        H102.914z" />
            <path d="M69.783,115.453c5.042,6.842,11.378,11.168,14.976,11.168c3.729,0,10.054-4.326,15.058-11.168H69.783z" />
            <path d="M63.46,83.203c-0.448,1.874-0.785,3.822-0.992,5.833h44.583c-0.207-2.011-0.544-3.959-0.992-5.833H63.46z
                        " />
            <path d="M78.321,36.476c-0.701-2.231-2.571-3.649-4.155-3.151c-1.585,0.498-2.309,2.73-1.608,4.961l2.342,7.458
                    c0.701,2.231,2.571,3.649,4.156,3.151c1.585-0.498,2.309-2.73,1.608-4.961L78.321,36.476z" />
            <path d="M91.275,36.476c0.701-2.231,2.571-3.649,4.156-3.151c1.584,0.498,2.308,2.73,1.607,4.961l-2.342,7.458
                    c-0.701,2.231-2.571,3.649-4.156,3.151c-1.585-0.498-2.309-2.73-1.608-4.961L91.275,36.476z" />
            <path d="M59.197,102.347c-9.152,6.505-19.037,10.533-25.923,10.533c-2.001,0-4.645-0.355-5.868-2.045
                    c-3.255-4.502,3.975-17.402,18.524-27.928c5.316-3.846,10.905-6.854,16.03-8.729c1.113-2.702,2.445-5.19,3.965-7.41
                    c-7.223,1.578-15.591,5.547-23.512,11.277c-17.264,12.489-25.806,28.098-19.869,36.305c1.495,2.066,4.569,4.529,10.729,4.529
                    c7.764,0,18.007-3.904,27.793-10.525C60.306,106.425,59.673,104.417,59.197,102.347z" />
            <path d="M127.586,78.046c-8.126-5.879-16.72-9.898-24.068-11.39c1.515,2.195,2.847,4.654,3.962,7.326
                    c5.277,1.856,11.079,4.938,16.59,8.925c14.549,10.526,21.78,23.426,18.524,27.928c-1.223,1.689-3.866,2.045-5.868,2.045
                    c-6.987,0-17.063-4.143-26.327-10.816c-0.458,2.085-1.078,4.105-1.824,6.05c9.894,6.769,20.292,10.767,28.15,10.767
                    c6.159,0,9.234-2.463,10.729-4.529C153.392,106.144,144.85,90.536,127.586,78.046z" />
            <path d="M88.446,125.664c0-2.339-1.688-4.252-3.75-4.252s-3.75,1.913-3.75,4.252v6.859
                    c0,2.339,1.688,4.252,3.75,4.252s3.75-1.913,3.75-4.252V125.664z" />
        </g>
        <g id="eau">
            <path d="M106.169,69.73C96.989,54.865,87.5,39.493,87.5,24.284c0-1.381-1.12-2.5-2.5-2.5
                c-1.381,0-2.5,1.119-2.5,2.5c0,15.107-9.473,30.474-18.634,45.334c-8.751,14.196-17.018,27.605-17.018,40.446
                c0,21.037,17.115,38.152,38.152,38.152c21.036,0,38.151-17.115,38.151-38.152C123.151,97.24,114.901,83.877,106.169,69.73z
                 M80.157,76.229c-0.131,0.2-7.708,16.526-6.84,37.934c0.067,1.656-2.066,6.852-8.301,6.852c-0.042,0-0.083,0.002-0.124,0.002
                c-2.909,0-6.264-3.703-6.264-8.797c0-18.556,16.191-37.176,16.772-38.056c0.911-1.383,2.518-3.001,3.9-2.088
                C80.685,72.986,81.067,74.845,80.157,76.229z" />
        </g>
        <g id="foret">
            <path d="M119.125,64.562c0-6.677-4.343-12.33-10.354-14.315c-0.443-8.854-10.502-15.935-22.854-15.935
                    c-10.886,0-19.99,5.501-22.302,12.867c-7.215,1.128-12.74,7.352-12.74,14.883c0,5.341,2.79,10.015,6.979,12.695
                    c-0.836,2.713-0.641,4.111-0.641,4.111l0.01-0.008c0.163,4.732,5.591,8.535,12.277,8.535c1.883,0,3.658-0.312,5.251-0.854
                    l-0.004,0.012c0,0,1.711,2.801,1.711,4.01c0,1.207-0.375,5.5-0.375,5.5l-10.208-4.75v4.707l9.083,9.459l-2.792,30.207h21.542
                    l-3.625-33.457l4.727-12.684c0.092,0.002,0.181,0.016,0.273,0.016c6.053,0,10.958-4.271,10.958-9.541
                    c0-0.176-0.02-0.346-0.03-0.52C113.409,78.535,119.125,72.223,119.125,64.562z M89.469,88.291c0,0-3.428,9.48-5.386,9.48
                    c-1.698,0-2.737-8.484-2.984-10.742c1.899,0.861,4.148,1.367,6.568,1.367c0.662,0,1.306-0.049,1.939-0.119
                    c0.042,0.021,0.088,0.035,0.13,0.057L89.469,88.291z" />
            <path d="M61.656,89.299c-4.517-1.992-7.617-5.664-7.914-9.979c-0.051-0.391-0.13-1.447,0.166-3.137
                    c-4.131-3.51-6.534-8.625-6.534-14.121c0-8.503,5.634-15.734,13.663-17.908c0.497-1.079,1.117-2.107,1.831-3.085
                    c-2.763-0.998-5.871-1.57-9.169-1.57c-9.792,0-17.981,4.948-20.061,11.574c-6.489,1.014-11.459,6.612-11.459,13.387
                    c0,4.804,2.509,9.007,6.277,11.419c-0.751,2.441-0.576,3.697-0.576,3.697l0.009-0.006c0.146,4.256,5.029,7.676,11.043,7.676
                    c1.693,0,3.291-0.279,4.723-0.766l-0.004,0.01c0,0,1.54,2.52,1.54,3.605c0,1.088-0.337,4.949-0.337,4.949l-9.182-4.273v4.234
                    l8.17,8.508l-2.511,27.172h19.376l-3.26-30.096L61.656,89.299z M56.895,88.053c0,0-3.083,8.529-4.844,8.529
                    c-1.527,0-2.462-7.633-2.684-9.662c1.708,0.775,3.73,1.229,5.908,1.229c0.595,0,1.175-0.043,1.744-0.107
                    c0.038,0.02,0.08,0.033,0.118,0.051L56.895,88.053z" />
            <path d="M147.82,66.709c0-6.005-3.906-11.091-9.313-12.877C138.108,45.869,129.06,39.5,117.95,39.5
                    c-3.24,0-6.296,0.551-9.021,1.516c1.51,2.048,2.563,4.323,3.05,6.749c6.45,3.038,10.646,9.532,10.646,16.798
                    c0,8.309-5.555,15.516-13.318,17.809c-0.307,1.512-0.912,2.93-1.744,4.213c0.113-0.035,0.232-0.064,0.344-0.102l-0.004,0.01
                    c0,0,1.54,2.52,1.54,3.605c0,1.088-0.337,4.949-0.337,4.949l-7.395-3.441c-0.574,0.268-1.172,0.498-1.788,0.695v2.707l8.17,8.508
                    l-2.511,27.172h19.376l-3.26-30.096l4.252-11.408c0.082,0.002,0.162,0.014,0.246,0.014c5.444,0,9.857-3.842,9.857-8.582
                    c0-0.158-0.018-0.312-0.026-0.467C142.679,79.277,147.82,73.6,147.82,66.709z M121.145,88.053c0,0-3.083,8.529-4.844,8.529
                    c-1.527,0-2.462-7.633-2.684-9.662c1.708,0.775,3.73,1.229,5.908,1.229c0.595,0,1.175-0.043,1.744-0.107
                    c0.038,0.02,0.08,0.033,0.118,0.051L121.145,88.053z" />
        </g>
        <g id="littoral">
            <path d="M136.434,119.359c-7.222,0-13.468-2.512-17.145-6.4c-3.677,3.889-9.923,6.4-17.145,6.4
                    s-13.467-2.512-17.144-6.4c-3.677,3.889-9.924,6.4-17.146,6.4c-7.222,0-13.467-2.512-17.144-6.4
                    c-3.677,3.889-9.923,6.4-17.145,6.4v-7c8.041,0,13.645-4.053,13.645-7.689h7c0,3.637,5.604,7.689,13.644,7.689
                    c8.042,0,13.646-4.053,13.646-7.689h7c0,3.637,5.604,7.689,13.644,7.689c8.041,0,13.645-4.053,13.645-7.689h7
                    c0,3.637,5.604,7.689,13.645,7.689V119.359z" />
            <path d="M136.434,136.658c-7.222,0-13.468-2.512-17.145-6.4c-3.677,3.889-9.923,6.4-17.145,6.4
                    s-13.467-2.512-17.144-6.4c-3.677,3.889-9.924,6.4-17.146,6.4c-7.222,0-13.467-2.512-17.144-6.4
                    c-3.677,3.889-9.923,6.4-17.145,6.4v-7c8.041,0,13.645-4.053,13.645-7.689h7c0,3.637,5.604,7.689,13.644,7.689
                    c8.042,0,13.646-4.053,13.646-7.689h7c0,3.637,5.604,7.689,13.644,7.689c8.041,0,13.645-4.053,13.645-7.689h7
                    c0,3.637,5.604,7.689,13.645,7.689V136.658z" />
            <path d="M106.829,39.995c0,0-27.206-16.84-53.913,3.065C25.961,63.15,36.564,94.525,36.564,94.525l32.765-25.428
                L91.631,98.15h8.824L74.859,64.807L106.829,39.995z" />
        </g>
        <g id="neigeglace">
            <polygon points="101.547,48.728 97.302,46.302 88.992,50.761 88.992,37.333 84.867,34.708 80.742,37.333 
                    80.742,50.619 72.698,46.302 68.453,48.728 68.853,53.601 80.742,59.981 80.742,78.772 88.992,78.772 88.992,60.124 
                    101.147,53.601 		" />
            <polygon points="68.453,121.272 72.698,123.698 81.008,119.239 81.008,132.667 85.133,135.292 89.258,132.667 
                    89.258,119.38 97.302,123.698 101.547,121.272 101.147,116.399 89.258,110.019 89.258,91.228 81.008,91.228 81.008,109.876 
                    68.853,116.399 		" />
            <polygon points="124.688,81.214 124.669,76.325 116.655,71.354 128.288,64.646 128.5,59.762 124.166,57.5 
                    112.656,64.137 112.378,55.011 108.156,52.546 104.134,55.326 104.546,68.813 88.268,78.2 92.39,85.347 108.544,76.03 
                    120.268,83.302 		" />
            <polygon points="45.312,88.784 45.331,93.675 53.345,98.646 41.713,105.353 41.499,110.237 45.834,112.499 
                    57.344,105.862 57.622,114.989 61.844,117.454 65.866,114.673 65.454,101.187 81.732,91.798 77.61,84.651 61.456,93.968 
                    49.732,86.696 		" />
            <polygon points="108.105,117.489 112.332,115.03 112.635,105.606 124.256,112.331 128.594,110.075 128.389,105.19 
                    116.89,98.536 124.656,93.735 124.682,88.847 120.265,86.751 108.786,93.847 92.522,84.435 88.391,91.575 104.531,100.915 
                    104.088,114.704 		" />
            <polygon points="61.895,52.51 57.668,54.969 57.365,64.394 45.744,57.669 41.405,59.924 41.611,64.809 
                    53.11,71.464 45.344,76.263 45.318,81.151 49.735,83.247 61.214,76.153 77.478,85.565 81.609,78.425 65.469,69.084 65.912,55.296 
                            " />
            <path d="M109.348,84.979l-12.211-7.049l-0.001-14.1l-12.21,7.05l-12.211-7.05l0.001,14.1l-12.211,7.051
                    l12.211,7.049v14.1l12.21-7.051l12.211,7.051V92.028L109.348,84.979z M88.585,91.188h-7.169l-3.584-6.209l3.584-6.207h7.169
                    l3.584,6.207L88.585,91.188z" />
        </g>
        <g id="risques">
            <path d="M130.934,107.163c-7.221,0-13.467-2.512-17.144-6.4c-3.677,3.889-9.923,6.4-17.145,6.4
                s-13.467-2.512-17.144-6.4c-3.677,3.889-9.924,6.4-17.146,6.4c-7.222,0-13.467-2.512-17.144-6.4
                c-3.677,3.889-9.923,6.4-17.145,6.4v-7c8.041,0,13.645-4.053,13.645-7.689h7c0,3.637,5.604,7.689,13.644,7.689
                c8.042,0,13.646-4.053,13.646-7.689h7c0,3.637,5.604,7.689,13.644,7.689c8.041,0,13.645-4.053,13.645-7.689h7
                c0,3.637,5.603,7.689,13.644,7.689V107.163z"/>

            <path d="M141.934,124.462c-7.221,0-13.467-2.512-17.145-6.4c-3.676,3.889-9.922,6.4-17.144,6.4
                s-13.467-2.512-17.144-6.4c-3.677,3.889-9.924,6.4-17.146,6.4c-7.222,0-13.467-2.512-17.144-6.4
                c-3.677,3.889-9.923,6.4-17.145,6.4v-7c8.041,0,13.645-4.053,13.645-7.689h7c0,3.637,5.604,7.689,13.644,7.689
                c8.042,0,13.646-4.053,13.646-7.689h7c0,3.637,5.604,7.689,13.644,7.689c8.041,0,13.644-4.053,13.644-7.689h7
                c0,3.637,5.604,7.689,13.645,7.689V124.462z"/>
            <path d="M57.457,98.079c1.456,0.364,3.096,0.584,4.898,0.584c7.415,0,12.146-3.666,12.146-6.189v-1.5h5.307v-9.648
                h14.748v17.228c0.672,0.066,1.364,0.11,2.089,0.11c7.414,0,12.145-3.666,12.145-6.189v-1.5h7.965V72.648h10.83l-18.281-12.35
                V44.226h-7.835v10.78l-14.362-9.703l-40.48,27.346h10.831V98.079z"/>
        </g>
        <g id="sante">
            <path d="M127.311,58.188h-21.074v-6.748c0-3.861-3.141-7.002-7.002-7.002H70.766c-3.861,0-7.002,3.141-7.002,7.002
                v6.748H42.689c-2.338,0-4.252,1.913-4.252,4.252v58.871c0,2.339,1.914,4.252,4.252,4.252h84.621c2.338,0,4.252-1.913,4.252-4.252
                V62.439C131.562,60.101,129.649,58.188,127.311,58.188z M69.264,51.439c0-0.814,0.688-1.502,1.502-1.502h28.469
                c0.814,0,1.502,0.688,1.502,1.502v6.748H69.264V51.439z M102.479,96.604h-12.25v12.25H79.896v-12.25h-12.25V86.271h12.25v-12.25
                h10.333v12.25h12.25V96.604z" />
        </g>
        <g id="urbain">
            <rect x="64.285" y="80.757" width="8.5" height="32.624" />
            <rect x="97.119" y="80.757" width="8.5" height="32.624" />
            <rect x="80.702" y="80.757" width="8.5" height="32.624" />
            <rect x="64.285" y="80.757" width="41.334" height="4.243" />
            <path d="M113.682,79.422c0.828-1.592,0.208-3.555-1.385-4.383L86.499,61.623c-0.065-0.034-0.136-0.051-0.202-0.08
                c-0.12-0.053-0.238-0.107-0.363-0.145c-0.1-0.03-0.199-0.045-0.3-0.064c-0.106-0.021-0.211-0.047-0.319-0.058
                c-0.102-0.01-0.202-0.005-0.304-0.005c-0.11-0.001-0.219-0.005-0.329,0.006c-0.099,0.01-0.193,0.033-0.29,0.052
                c-0.11,0.021-0.221,0.038-0.33,0.07c-0.108,0.033-0.212,0.082-0.317,0.127c-0.08,0.034-0.164,0.056-0.243,0.097L57.703,75.039
                c-1.592,0.828-2.212,2.791-1.384,4.383c0.305,0.586,0.765,1.036,1.301,1.335h54.76C112.916,80.458,113.377,80.008,113.682,79.422z
                " />
            <path d="M84.973,47.756c-1.75,0-2,1.042-2,1.042v15.333h4V48.798C86.973,48.798,86.723,47.756,84.973,47.756z" />
            <path d="M85.99,58.152c5.098,2.281,10.86-0.704,15.958,1.124c0.222-2.839,0-8.661,0-8.661
                c-5.098-2.281-10.196,0.878-15.294-0.95C86.433,52.504,86.212,55.333,85.99,58.152z" />
            <polygon points="108.049,115.881 61.952,115.881 55.952,122.244 114.049,122.244 			" />
            <path d="M54.133,120.529l6-6.363l0.74-0.785h1.079h0.208V83.068H35.394v39.176h17.122L54.133,120.529z
                 M49.806,89.131h6.354v6.188h-6.354V89.131z M49.806,101.631h6.354v6.188h-6.354V101.631z M45.681,107.818h-4.083v-6.188h4.083
                V107.818z M45.681,95.318h-4.083v-6.188h4.083V95.318z" />
            <path d="M107.84,83.068v30.312h0.209h1.079l0.74,0.785l6,6.363l1.616,1.715h17.122V83.068H107.84z
                 M120.193,107.818h-6.354v-6.188h6.354V107.818z M120.193,95.318h-6.354v-6.188h6.354V95.318z M128.402,107.818h-4.084v-6.188
                h4.084V107.818z M128.402,95.318h-4.084v-6.188h4.084V95.318z" />
        </g>
        <g id="algorithmes">
            <path d="M113.296,118.074l-3.157-1.471c-0.008-0.284-0.006-0.566-0.03-0.854c-0.026-0.313-0.081-0.618-0.126-0.925
                    l2.849-2.001c1.349-0.948,1.673-2.81,0.727-4.159l-4.146-5.902c-0.949-1.349-2.81-1.674-4.158-0.727l-2.837,1.994
                    c-0.507-0.274-1.033-0.513-1.572-0.727l-0.296-3.463c-0.142-1.642-1.587-2.859-3.23-2.719l-7.187,0.616
                    c-1.644,0.142-2.86,1.585-2.718,3.229l0.296,3.463c-0.517,0.316-1.018,0.654-1.488,1.029l-3.139-1.464
                    c-1.495-0.697-3.271-0.05-3.969,1.444l-3.045,6.539c-0.697,1.495-0.05,3.27,1.444,3.967l3.155,1.47
                    c0.008,0.285,0.006,0.568,0.03,0.855c0.026,0.313,0.081,0.618,0.127,0.926l-2.85,2.001c-1.35,0.947-1.674,2.809-0.728,4.158
                    l4.146,5.902c0.949,1.35,2.81,1.675,4.159,0.727l2.837-1.993c0.507,0.273,1.033,0.512,1.572,0.726l0.296,3.463
                    c0.142,1.643,1.587,2.859,3.229,2.719l7.188-0.616c1.643-0.141,2.859-1.585,2.718-3.229l-0.296-3.462
                    c0.517-0.317,1.019-0.655,1.489-1.03l3.14,1.463c1.494,0.697,3.27,0.05,3.967-1.444l3.046-6.539
                    C115.436,120.546,114.789,118.771,113.296,118.074z M95.924,123.081c-3.353,0.288-6.305-2.198-6.592-5.551
                    c-0.287-3.352,2.198-6.304,5.551-6.591c3.352-0.288,6.304,2.198,6.591,5.552C101.762,119.843,99.276,122.794,95.924,123.081z" />
            <path d="M79.871,84.848l-1.496-0.696c-0.004-0.136-0.003-0.271-0.015-0.404c-0.013-0.149-0.038-0.294-0.059-0.439
                    l1.349-0.948c0.641-0.449,0.793-1.331,0.346-1.97l-1.966-2.797c-0.45-0.64-1.331-0.794-1.97-0.345l-1.345,0.944
                    c-0.24-0.13-0.489-0.243-0.745-0.344l-0.141-1.641c-0.067-0.778-0.751-1.355-1.53-1.289l-3.406,0.292
                    c-0.778,0.067-1.354,0.751-1.287,1.53l0.141,1.641c-0.245,0.15-0.481,0.311-0.706,0.487l-1.487-0.692
                    c-0.708-0.331-1.551-0.023-1.88,0.684l-1.443,3.098c-0.33,0.709-0.022,1.55,0.685,1.88l1.495,0.697
                    c0.004,0.136,0.004,0.269,0.015,0.405c0.013,0.148,0.038,0.293,0.06,0.438l-1.35,0.949c-0.64,0.448-0.794,1.33-0.345,1.969
                    l1.965,2.797c0.449,0.641,1.331,0.794,1.971,0.345l1.344-0.944c0.24,0.13,0.489,0.243,0.745,0.344l0.141,1.641
                    c0.067,0.778,0.752,1.355,1.53,1.289l3.406-0.292c0.778-0.067,1.354-0.751,1.287-1.53l-0.14-1.641
                    c0.245-0.15,0.481-0.311,0.705-0.487l1.488,0.691c0.708,0.331,1.55,0.025,1.88-0.684l1.443-3.098
                    C80.885,86.019,80.578,85.179,79.871,84.848z M71.64,87.22c-1.588,0.137-2.987-1.041-3.124-2.63
                    c-0.137-1.588,1.042-2.986,2.63-3.123s2.987,1.041,3.123,2.63C74.406,85.685,73.229,87.083,71.64,87.22z" />
            <path d="M68.1,67.024l-2.021-0.94c-0.006-0.184-0.004-0.365-0.021-0.546c-0.017-0.202-0.051-0.397-0.079-0.595
                    l1.822-1.281c0.866-0.606,1.072-1.798,0.468-2.661l-2.656-3.779c-0.608-0.864-1.799-1.073-2.662-0.466l-1.817,1.275
                    c-0.324-0.175-0.661-0.328-1.007-0.464l-0.189-2.217c-0.092-1.052-1.015-1.832-2.068-1.742l-4.603,0.395
                    c-1.052,0.091-1.83,1.015-1.739,2.067l0.19,2.218c-0.332,0.203-0.651,0.419-0.954,0.658l-2.01-0.936
                    c-0.957-0.447-2.096-0.032-2.541,0.924l-1.95,4.186c-0.446,0.958-0.03,2.094,0.925,2.54l2.021,0.942
                    c0.006,0.184,0.006,0.363,0.02,0.548c0.018,0.2,0.052,0.396,0.081,0.593l-1.824,1.282c-0.864,0.605-1.072,1.797-0.466,2.66
                    l2.655,3.779c0.607,0.866,1.799,1.073,2.663,0.466l1.815-1.275c0.325,0.175,0.661,0.328,1.007,0.464l0.19,2.217
                    c0.091,1.052,1.017,1.832,2.068,1.742l4.603-0.395c1.052-0.091,1.83-1.015,1.739-2.067l-0.188-2.218
                    c0.331-0.203,0.65-0.419,0.952-0.658l2.012,0.935c0.956,0.447,2.094,0.034,2.54-0.924l1.95-4.186
                    C69.469,68.607,69.055,67.472,68.1,67.024z M56.977,70.23c-2.146,0.185-4.037-1.407-4.222-3.554s1.408-4.036,3.554-4.221
                    s4.037,1.407,4.22,3.554C60.715,68.155,59.123,70.046,56.977,70.23z" />
            <path d="M126.471,98.423l-3.894-1.814c-0.011-0.351-0.008-0.697-0.038-1.052c-0.031-0.387-0.1-0.763-0.155-1.141
                        l3.514-2.468c1.663-1.17,2.062-3.465,0.896-5.13l-5.113-7.278c-1.17-1.663-3.465-2.064-5.128-0.896l-3.498,2.46
                        c-0.626-0.34-1.274-0.634-1.939-0.896l-0.366-4.271c-0.173-2.024-1.957-3.527-3.983-3.353l-8.862,0.759
                        c-2.027,0.176-3.527,1.955-3.353,3.982l0.365,4.271c-0.637,0.39-1.255,0.807-1.836,1.269l-3.871-1.805
                        c-1.844-0.859-4.034-0.062-4.893,1.781l-3.757,8.065c-0.859,1.844-0.061,4.03,1.782,4.892l3.891,1.812
                        c0.003,0.122,0.011,0.245,0.014,0.367c0.105-0.16,0.201-0.327,0.327-0.477c0.857-1.018,2.06-1.641,3.388-1.756l7.187-0.616
                        c0.006,0,0.011,0,0.017-0.001c0.809-2.949,3.374-5.229,6.599-5.504c4.134-0.356,7.774,2.711,8.129,6.847
                        c0.148,1.729-0.307,3.366-1.183,4.718c0.12,0.135,0.234,0.275,0.34,0.425l4.147,5.903c0.837,1.193,1.06,2.626,0.765,3.948
                        l3.643,1.696c1.843,0.859,4.032,0.062,4.892-1.781l3.757-8.065C129.109,101.471,128.312,99.282,126.471,98.423z" />

            <polygon points="123.403,76.842 116.403,76.842 116.403,39.926 48.403,39.926 48.403,55.758 41.403,55.758 
                        41.403,32.926 123.403,32.926 			" />

            <path d="M108.487,52.592H59.17c-1.933,0-3.5-1.567-3.5-3.5s1.567-3.5,3.5-3.5h49.317c1.933,0,3.5,1.567,3.5,3.5
                        S110.42,52.592,108.487,52.592z" />

            <path d="M108.487,67.259H86.403c-1.933,0-3.5-1.567-3.5-3.5s1.567-3.5,3.5-3.5h22.084c1.933,0,3.5,1.567,3.5,3.5
                        S110.42,67.259,108.487,67.259z" />

            <path d="M42.326,87.069c0-1.159,0.119-2.092,0.358-2.799c0.238-0.707,0.593-1.252,1.063-1.636
                        s1.062-0.575,1.776-0.575c0.525,0,0.987,0.105,1.384,0.317c0.397,0.212,0.726,0.518,0.983,0.917
                        c0.259,0.398,0.462,0.885,0.609,1.458s0.221,1.346,0.221,2.317c0,1.151-0.118,2.08-0.354,2.786
                        c-0.236,0.707-0.59,1.254-1.061,1.64s-1.064,0.578-1.782,0.578c-0.946,0-1.688-0.339-2.228-1.017
                        C42.649,90.24,42.326,88.912,42.326,87.069z M43.564,87.069c0,1.61,0.188,2.682,0.564,3.215s0.842,0.799,1.396,0.799
                        c0.553,0,1.018-0.268,1.395-0.803s0.565-1.605,0.565-3.211c0-1.614-0.188-2.687-0.565-3.217
                        c-0.377-0.531-0.847-0.797-1.408-0.797c-0.553,0-0.995,0.234-1.324,0.703C43.771,84.356,43.564,85.46,43.564,87.069z" />
            <path d="M54.208,91.906h-1.204v-7.673c-0.29,0.276-0.671,0.553-1.141,0.829c-0.471,0.277-0.894,0.484-1.268,0.623
                        v-1.164c0.673-0.317,1.262-0.7,1.766-1.151c0.504-0.45,0.86-0.887,1.07-1.311h0.776V91.906z" />
            <path d="M42.326,102.069c0-1.159,0.119-2.092,0.358-2.799c0.238-0.707,0.593-1.252,1.063-1.636
                        s1.062-0.575,1.776-0.575c0.525,0,0.987,0.105,1.384,0.317c0.397,0.212,0.726,0.518,0.983,0.917
                        c0.259,0.398,0.462,0.885,0.609,1.458s0.221,1.346,0.221,2.317c0,1.151-0.118,2.08-0.354,2.786
                        c-0.236,0.707-0.59,1.254-1.061,1.64s-1.064,0.578-1.782,0.578c-0.946,0-1.688-0.339-2.228-1.017
                        C42.649,105.24,42.326,103.912,42.326,102.069z M43.564,102.069c0,1.61,0.188,2.682,0.564,3.215s0.842,0.799,1.396,0.799
                        c0.553,0,1.018-0.268,1.395-0.803s0.565-1.605,0.565-3.211c0-1.614-0.188-2.687-0.565-3.217
                        c-0.377-0.531-0.847-0.797-1.408-0.797c-0.553,0-0.995,0.234-1.324,0.703C43.771,99.356,43.564,100.46,43.564,102.069z" />
            <path d="M54.208,106.906h-1.204v-7.673c-0.29,0.276-0.671,0.553-1.141,0.829
                        c-0.471,0.277-0.894,0.484-1.268,0.623v-1.164c0.673-0.317,1.262-0.7,1.766-1.151c0.504-0.45,0.86-0.887,1.07-1.311h0.776
                        V106.906z" />
            <path d="M60.536,106.906h-1.204v-7.673c-0.29,0.276-0.671,0.553-1.141,0.829
                        c-0.471,0.277-0.894,0.484-1.268,0.623v-1.164c0.673-0.317,1.262-0.7,1.766-1.151c0.504-0.45,0.86-0.887,1.07-1.311h0.776
                        V106.906z" />
            <path d="M63.346,102.069c0-1.159,0.119-2.092,0.358-2.799c0.238-0.707,0.593-1.252,1.063-1.636
                        s1.062-0.575,1.776-0.575c0.525,0,0.987,0.105,1.384,0.317c0.397,0.212,0.726,0.518,0.983,0.917
                        c0.259,0.398,0.462,0.885,0.609,1.458s0.221,1.346,0.221,2.317c0,1.151-0.118,2.08-0.354,2.786
                        c-0.236,0.707-0.59,1.254-1.061,1.64s-1.064,0.578-1.782,0.578c-0.946,0-1.688-0.339-2.228-1.017
                        C63.669,105.24,63.346,103.912,63.346,102.069z M64.584,102.069c0,1.61,0.188,2.682,0.564,3.215s0.842,0.799,1.396,0.799
                        c0.553,0,1.018-0.268,1.395-0.803s0.565-1.605,0.565-3.211c0-1.614-0.188-2.687-0.565-3.217
                        c-0.377-0.531-0.847-0.797-1.408-0.797c-0.553,0-0.995,0.234-1.324,0.703C64.791,99.356,64.584,100.46,64.584,102.069z" />
            <path d="M42.326,117.069c0-1.159,0.119-2.092,0.358-2.799c0.238-0.707,0.593-1.252,1.063-1.636
                        s1.062-0.575,1.776-0.575c0.525,0,0.987,0.105,1.384,0.317c0.397,0.212,0.726,0.518,0.983,0.917
                        c0.259,0.398,0.462,0.885,0.609,1.458s0.221,1.346,0.221,2.317c0,1.151-0.118,2.08-0.354,2.786
                        c-0.236,0.707-0.59,1.254-1.061,1.64s-1.064,0.578-1.782,0.578c-0.946,0-1.688-0.339-2.228-1.017
                        C42.649,120.24,42.326,118.912,42.326,117.069z M43.564,117.069c0,1.61,0.188,2.682,0.564,3.215s0.842,0.799,1.396,0.799
                        c0.553,0,1.018-0.268,1.395-0.803s0.565-1.605,0.565-3.211c0-1.614-0.188-2.687-0.565-3.217
                        c-0.377-0.531-0.847-0.797-1.408-0.797c-0.553,0-0.995,0.234-1.324,0.703C43.771,114.356,43.564,115.46,43.564,117.069z" />
            <path d="M49.672,117.069c0-1.159,0.119-2.092,0.358-2.799c0.238-0.707,0.593-1.252,1.063-1.636
                        s1.062-0.575,1.776-0.575c0.525,0,0.987,0.105,1.384,0.317c0.397,0.212,0.726,0.518,0.983,0.917
                        c0.259,0.398,0.462,0.885,0.609,1.458s0.221,1.346,0.221,2.317c0,1.151-0.118,2.08-0.354,2.786
                        c-0.236,0.707-0.59,1.254-1.061,1.64s-1.064,0.578-1.782,0.578c-0.946,0-1.688-0.339-2.228-1.017
                        C49.995,120.24,49.672,118.912,49.672,117.069z M50.91,117.069c0,1.61,0.188,2.682,0.564,3.215s0.842,0.799,1.396,0.799
                        c0.553,0,1.018-0.268,1.395-0.803s0.565-1.605,0.565-3.211c0-1.614-0.188-2.687-0.565-3.217
                        c-0.377-0.531-0.847-0.797-1.408-0.797c-0.553,0-0.995,0.234-1.324,0.703C51.117,114.356,50.91,115.46,50.91,117.069z" />
            <path d="M57.017,117.069c0-1.159,0.119-2.092,0.358-2.799c0.238-0.707,0.593-1.252,1.063-1.636
                        s1.062-0.575,1.776-0.575c0.525,0,0.987,0.105,1.384,0.317c0.397,0.212,0.726,0.518,0.983,0.917
                        c0.259,0.398,0.462,0.885,0.609,1.458s0.221,1.346,0.221,2.317c0,1.151-0.118,2.08-0.354,2.786
                        c-0.236,0.707-0.59,1.254-1.061,1.64s-1.064,0.578-1.782,0.578c-0.946,0-1.688-0.339-2.228-1.017
                        C57.34,120.24,57.017,118.912,57.017,117.069z M58.255,117.069c0,1.61,0.188,2.682,0.564,3.215s0.842,0.799,1.396,0.799
                        c0.553,0,1.018-0.268,1.395-0.803s0.565-1.605,0.565-3.211c0-1.614-0.188-2.687-0.565-3.217
                        c-0.377-0.531-0.847-0.797-1.408-0.797c-0.553,0-0.995,0.234-1.324,0.703C58.462,114.356,58.255,115.46,58.255,117.069z" />
            <path d="M68.898,121.906h-1.204v-7.673c-0.29,0.276-0.671,0.553-1.141,0.829
                        c-0.471,0.277-0.894,0.484-1.268,0.623v-1.164c0.673-0.317,1.262-0.7,1.766-1.151c0.504-0.45,0.86-0.887,1.07-1.311h0.776
                        V121.906z" />
            <path d="M42.326,132.069c0-1.159,0.119-2.092,0.358-2.799c0.238-0.707,0.593-1.252,1.063-1.636
                        s1.062-0.575,1.776-0.575c0.525,0,0.987,0.105,1.384,0.317c0.397,0.212,0.726,0.518,0.983,0.917
                        c0.259,0.398,0.462,0.885,0.609,1.458s0.221,1.346,0.221,2.317c0,1.151-0.118,2.08-0.354,2.786
                        c-0.236,0.707-0.59,1.254-1.061,1.64s-1.064,0.578-1.782,0.578c-0.946,0-1.688-0.339-2.228-1.017
                        C42.649,135.24,42.326,133.912,42.326,132.069z M43.564,132.069c0,1.61,0.188,2.682,0.564,3.215s0.842,0.799,1.396,0.799
                        c0.553,0,1.018-0.268,1.395-0.803s0.565-1.605,0.565-3.211c0-1.614-0.188-2.687-0.565-3.217
                        c-0.377-0.531-0.847-0.797-1.408-0.797c-0.553,0-0.995,0.234-1.324,0.703C43.771,129.356,43.564,130.46,43.564,132.069z" />
            <path d="M54.208,136.906h-1.204v-7.673c-0.29,0.276-0.671,0.553-1.141,0.829
                        c-0.471,0.277-0.894,0.484-1.268,0.623v-1.164c0.673-0.317,1.262-0.7,1.766-1.151c0.504-0.45,0.86-0.887,1.07-1.311h0.776
                        V136.906z" />
            <path d="M60.536,136.906h-1.204v-7.673c-0.29,0.276-0.671,0.553-1.141,0.829
                        c-0.471,0.277-0.894,0.484-1.268,0.623v-1.164c0.673-0.317,1.262-0.7,1.766-1.151c0.504-0.45,0.86-0.887,1.07-1.311h0.776
                        V136.906z" />
            <path d="M63.346,132.069c0-1.159,0.119-2.092,0.358-2.799c0.238-0.707,0.593-1.252,1.063-1.636
                        s1.062-0.575,1.776-0.575c0.525,0,0.987,0.105,1.384,0.317c0.397,0.212,0.726,0.518,0.983,0.917
                        c0.259,0.398,0.462,0.885,0.609,1.458s0.221,1.346,0.221,2.317c0,1.151-0.118,2.08-0.354,2.786
                        c-0.236,0.707-0.59,1.254-1.061,1.64s-1.064,0.578-1.782,0.578c-0.946,0-1.688-0.339-2.228-1.017
                        C63.669,135.24,63.346,133.912,63.346,132.069z M64.584,132.069c0,1.61,0.188,2.682,0.564,3.215s0.842,0.799,1.396,0.799
                        c0.553,0,1.018-0.268,1.395-0.803s0.565-1.605,0.565-3.211c0-1.614-0.188-2.687-0.565-3.217
                        c-0.377-0.531-0.847-0.797-1.408-0.797c-0.553,0-0.995,0.234-1.324,0.703C64.791,129.356,64.584,130.46,64.584,132.069z" />
            <path d="M75.227,136.906h-1.204v-7.673c-0.29,0.276-0.671,0.553-1.141,0.829
                        c-0.471,0.277-0.894,0.484-1.268,0.623v-1.164c0.673-0.317,1.262-0.7,1.766-1.151c0.504-0.45,0.86-0.887,1.07-1.311h0.776
                        V136.906z" />
        </g>
    </defs>
</svg>