<?xml version="1.0" encoding="utf-8"?>
<!-- Generator: Adobe Illustrator 16.0.3, SVG Export Plug-In . SVG Version: 6.00 Build 0)  -->
<!DOCTYPE svg PUBLIC "-//W3C//DTD SVG 1.1//EN" "http://www.w3.org/Graphics/SVG/1.1/DTD/svg11.dtd">
<svg version="1.1" id="Calque_1" xmlns="http://www.w3.org/2000/svg" xmlns:xlink="http://www.w3.org/1999/xlink" x="0px" y="0px"
	 width="1125px" height="1125px" viewBox="0 0 1125 1125" enable-background="new 0 0 1125 1125" xml:space="preserve">
<g>
	<defs>
		<rect id="SVGID_127_" x="1.984" y="-9.04" width="1125" height="1132.5"/>
	</defs>
	<clipPath id="SVGID_2_">
		<use xlink:href="#SVGID_127_"  overflow="visible"/>
	</clipPath>
</g>
<g>
	<defs>
		<rect id="SVGID_129_" x="1.984" y="-9.04" width="1125" height="1125"/>
	</defs>
	<clipPath id="SVGID_4_">
		<use xlink:href="#SVGID_129_"  overflow="visible"/>
	</clipPath>
	<g clip-path="url(#SVGID_4_)">
	</g>
	<g clip-path="url(#SVGID_4_)">
	</g>
	<g clip-path="url(#SVGID_4_)">
	</g>
	<g clip-path="url(#SVGID_4_)">
	</g>
	<g clip-path="url(#SVGID_4_)">
	</g>
	<g clip-path="url(#SVGID_4_)">
	</g>
	<g clip-path="url(#SVGID_4_)">
	</g>
	<g clip-path="url(#SVGID_4_)">
	</g>
	<g clip-path="url(#SVGID_4_)">
	</g>
</g>
<g>
	<defs>
		<rect id="SVGID_131_" x="1.984" y="-9.04" width="1125" height="1132.5"/>
	</defs>
	<clipPath id="SVGID_6_">
		<use xlink:href="#SVGID_131_"  overflow="visible"/>
	</clipPath>
</g>
<g>
	<defs>
		<rect id="SVGID_133_" x="1.984" y="-9.04" width="1125" height="1132.5"/>
	</defs>
	<clipPath id="SVGID_8_">
		<use xlink:href="#SVGID_133_"  overflow="visible"/>
	</clipPath>
</g>
<g>
	<defs>
		<rect id="SVGID_135_" x="1.984" y="-9.04" width="1125" height="1125"/>
	</defs>
	<clipPath id="SVGID_10_">
		<use xlink:href="#SVGID_135_"  overflow="visible"/>
	</clipPath>
	<g clip-path="url(#SVGID_10_)">
	</g>
	<g clip-path="url(#SVGID_10_)">
	</g>
	<g clip-path="url(#SVGID_10_)">
	</g>
	<g clip-path="url(#SVGID_10_)">
	</g>
	<g clip-path="url(#SVGID_10_)">
	</g>
	<g clip-path="url(#SVGID_10_)">
	</g>
	<g clip-path="url(#SVGID_10_)">
	</g>
	<g clip-path="url(#SVGID_10_)">
	</g>
	<g clip-path="url(#SVGID_10_)">
	</g>
</g>
<g>
	<defs>
		<rect id="SVGID_137_" y="-8.04" width="1125" height="1132.5"/>
	</defs>
	<clipPath id="SVGID_12_">
		<use xlink:href="#SVGID_137_"  overflow="visible"/>
	</clipPath>
</g>
<g>
	<defs>
		<rect id="SVGID_139_" y="-8.04" width="1125" height="1132.5"/>
	</defs>
	<clipPath id="SVGID_14_">
		<use xlink:href="#SVGID_139_"  overflow="visible"/>
	</clipPath>
	<g clip-path="url(#SVGID_14_)">
		<defs>
			<rect id="SVGID_141_" y="-8.04" width="1125" height="1125"/>
		</defs>
		<clipPath id="SVGID_16_">
			<use xlink:href="#SVGID_141_"  overflow="visible"/>
		</clipPath>
		<g clip-path="url(#SVGID_16_)">
			<defs>
				<polygon id="SVGID_143_" points="0,214.662 916.331,4.848 1124.82,926.998 208.489,1136.812 				"/>
			</defs>
			<clipPath id="SVGID_18_">
				<use xlink:href="#SVGID_143_"  overflow="visible"/>
			</clipPath>
			<g clip-path="url(#SVGID_18_)">
				<defs>
					<polygon id="SVGID_145_" points="0,214.662 916.331,4.848 1124.82,926.998 208.489,1136.812 					"/>
				</defs>
				<clipPath id="SVGID_20_">
					<use xlink:href="#SVGID_145_"  overflow="visible"/>
				</clipPath>
				<path clip-path="url(#SVGID_20_)" fill="#EB741F" d="M758.057,1000.841c72.663-33.397,136.124-85.516,183.511-150.717
					l-21.559-15.871C875.315,895.75,815.476,944.895,746.97,976.382c-27.53,12.648-56.546,22.508-86.242,29.309
					c-73.791,16.896-150.91,14.539-223.028-6.816c-76.567-22.679-145.779-65.757-200.15-124.59
					c-52.854-57.187-89.942-127.906-107.254-204.507l-26.049,5.963c18.354,81.212,57.682,156.199,113.733,216.854
					c57.638,62.36,131.002,108.031,212.171,132.065c76.487,22.649,158.267,25.155,236.499,7.241
					C698.122,1024.696,728.875,1014.25,758.057,1000.841z M192.764,324.846c39.302-59.842,92.854-109.722,154.859-144.245
					l-12.933-23.524c-65.76,36.614-122.544,89.504-164.211,152.947c-40.721,61.979-66.661,133.57-75.019,207.027l26.538,3.061
					C129.881,450.834,154.35,383.315,192.764,324.846z M1020.576,465.93c-10.363-45.84-27.272-89.58-50.243-130.008
					c-29.04-51.109-66.968-95.86-112.733-133.007c-112.767-91.509-258.354-125.461-399.438-93.157l5.927,26.212
					c133.063-30.468,270.381,1.56,376.735,87.87c43.168,35.035,78.94,77.233,106.318,125.424
					c21.663,38.123,37.606,79.38,47.385,122.631c10.533,46.591,13.618,94.106,9.171,141.227l26.596,2.537
					C1035.01,565.687,1031.741,515.311,1020.576,465.93z M242.69,335.607l-21.574-15.855
					c-72.22,99.498-98.07,225.416-70.927,345.471l26.046-5.963C150.807,546.791,175.028,428.822,242.69,335.607z M821.604,234.732
					c-89.614-69.931-200.651-100.461-312.659-85.961c-13.462,1.749-27.037,4.178-40.33,7.222l5.927,26.211
					c12.468-2.854,25.19-5.132,37.819-6.771c104.904-13.579,208.909,15.028,292.876,80.545L821.604,234.732z M975.543,661.604
					c13.321-61.271,13.017-123.563-0.909-185.155l-26.046,5.964c13.047,57.708,13.337,116.066,0.862,173.44
					c-24.324,111.766-95.106,207.711-194.195,263.216l13,23.49C874.025,883.303,949.579,780.895,975.543,661.604z M650.271,959.455
					c-94.273,21.587-192.869,7.818-277.608-38.763c-63.92-35.147-116.865-87.063-153.109-150.139l-23.124,13.464
					c38.699,67.333,95.211,122.753,163.425,160.26c90.469,49.726,195.71,64.424,296.341,41.382L650.271,959.455z M479.246,203.01
					c201.859-46.22,402.734,80.992,448.663,284.136c45.929,203.142-80.479,405.295-282.34,451.517
					c-201.86,46.219-402.737-80.994-448.666-284.138S277.386,249.23,479.246,203.01z"/>
			</g>
		</g>
	</g>
</g>
<g>
	<defs>
		<rect id="SVGID_147_" x="2.857" y="3.389" width="1125" height="1125"/>
	</defs>
	<clipPath id="SVGID_22_">
		<use xlink:href="#SVGID_147_"  overflow="visible"/>
	</clipPath>
	<g clip-path="url(#SVGID_22_)">
	</g>
	<g clip-path="url(#SVGID_22_)">
	</g>
	<g clip-path="url(#SVGID_22_)">
	</g>
	<g clip-path="url(#SVGID_22_)">
	</g>
	<g clip-path="url(#SVGID_22_)">
	</g>
	<g clip-path="url(#SVGID_22_)">
	</g>
	<g clip-path="url(#SVGID_22_)">
	</g>
	<g clip-path="url(#SVGID_22_)">
	</g>
	<g clip-path="url(#SVGID_22_)">
	</g>
	<g clip-path="url(#SVGID_22_)">
		<path fill="#FFFFFF" d="M415.879,525.202l-8.702,14.764c-3.134-1.854-6.523-2.91-10.17-3.17c-3.646-0.258-7.305,0.28-10.975,1.615
			c-4.973,1.81-9.221,4.809-12.746,8.996c-3.525,4.188-5.662,9.122-6.41,14.801c-0.748,5.681-0.06,11.44,2.066,17.279
			c2.082,5.722,5.145,10.395,9.189,14.017c4.044,3.622,8.777,5.854,14.201,6.695c5.423,0.842,10.64,0.351,15.651-1.474
			c8.286-3.017,13.544-8.706,15.773-17.069l16.889,4.779c-1.624,5.73-4.63,10.946-9.018,15.648
			c-4.389,4.703-10.192,8.369-17.413,10.998c-10.063,3.662-19.363,4.444-27.902,2.346c-8.539-2.098-15.903-6.244-22.09-12.438
			c-5.242-5.197-9.164-11.367-11.764-18.51c-3.073-8.443-3.884-16.84-2.432-25.189c1.453-8.349,4.82-15.607,10.105-21.777
			c5.284-6.168,12.207-10.811,20.771-13.928c5.327-1.939,10.304-2.968,14.93-3.088c4.626-0.119,8.761,0.343,12.402,1.385
			C410.511,522.486,413.058,523.593,415.879,525.202z"/>
		<path fill="#FFFFFF" d="M424.975,509.491l56.881-20.703l5.041,13.85l-41.729,15.188l7.756,21.308l38.946-14.175l5.02,13.791
			l-38.946,14.176l8.487,23.32l43.859-15.964l5.041,13.851l-59.012,21.479L424.975,509.491z"/>
		<path fill="#FFFFFF" d="M554.795,470.217l-6.975,15.274c-2.49-1.686-5.224-2.624-8.196-2.814c-2.976-0.192-5.982,0.266-9.02,1.372
			c-4.735,1.723-7.983,4.158-9.744,7.3c-1.761,3.144-2.072,6.274-0.938,9.391c0.732,2.013,1.925,3.601,3.577,4.764
			c1.652,1.165,3.851,1.895,6.596,2.191c2.077,0.183,6.291,0.157,12.641-0.076c6.351-0.233,10.887-0.108,13.611,0.375
			c4.298,0.759,8.075,2.423,11.333,4.991c3.259,2.568,5.749,6.219,7.473,10.954c2.858,7.853,2.436,15.347-1.269,22.481
			c-3.703,7.136-10.646,12.556-20.826,16.261c-6.117,2.227-11.89,3.154-17.319,2.785c-5.431-0.37-10.315-1.73-14.657-4.083
			l7.433-15.308c3.168,2.198,6.524,3.502,10.069,3.909c3.545,0.409,7.014-0.005,10.407-1.24c4.617-1.68,7.846-4.196,9.688-7.548
			c1.841-3.351,2.188-6.604,1.038-9.762c-0.804-2.21-2.058-3.932-3.758-5.168c-1.7-1.235-3.69-1.974-5.969-2.217
			c-1.385-0.122-5.203-0.117-11.457,0.014c-6.253,0.131-10.418,0.105-12.496-0.077c-3.756-0.375-6.974-1.204-9.652-2.486
			c-2.678-1.281-5.052-3.076-7.121-5.384s-3.678-5.041-4.826-8.198c-2.428-6.668-2.254-13.189,0.521-19.561
			c3.56-8.267,10.705-14.354,21.439-18.26c5.445-1.982,10.48-2.91,15.107-2.784C546.131,467.438,550.562,468.406,554.795,470.217z"
			/>
		<path fill="#FFFFFF" d="M609.158,463.622l44.536-16.209l3.947,10.844l-32.672,11.892l6.071,16.683l30.493-11.099l3.931,10.798
			l-30.493,11.099l6.646,18.259l34.34-12.499l3.946,10.844L633.7,531.05L609.158,463.622z"/>
		<path fill="#FFFFFF" d="M683.027,436.736l42.068,31.659c3.556,2.66,7.219,6.137,10.986,10.434
			c-2.315-5.21-4.177-9.745-5.583-13.607l-14.708-40.41l11.818-4.302l24.542,67.428l-15.295,5.566l-41.459-31.146
			c-1.73-1.294-3.865-3.071-6.402-5.333c-1.633-1.505-3.543-3.485-5.731-5.943c1.349,2.938,3.098,7.358,5.245,13.258l15.029,41.291
			l-11.817,4.301l-24.542-67.428L683.027,436.736z"/>
		<path fill="#FFFFFF" d="M244.374,723.809l21.133-7.692c5.396-1.964,9.666-3.009,12.813-3.136
			c4.152-0.153,7.939,0.853,11.359,3.021c3.42,2.166,5.971,5.56,7.65,10.175c1.517,4.167,1.798,8.182,0.844,12.041
			c-0.954,3.862-2.99,7.106-6.107,9.734c-2.387,2.023-6.608,4.137-12.663,6.341l-9.397,3.421l9.918,27.248l-11.736,4.271
			L244.374,723.809z M266.339,747.641l8.139-2.963c2.098-0.764,3.52-1.332,4.268-1.706c1.594-0.749,2.902-1.539,3.924-2.37
			c1.021-0.83,1.818-1.79,2.389-2.881c0.571-1.09,0.885-2.257,0.941-3.5c0.057-1.242-0.139-2.479-0.586-3.708
			c-0.753-2.068-1.961-3.641-3.625-4.714c-1.665-1.075-3.735-1.519-6.213-1.33c-1.723,0.118-4.428,0.849-8.114,2.19l-7.734,2.815
			L266.339,747.641z"/>
		<path fill="#FFFFFF" d="M326.351,736.797l10.049,27.608l-11.736,4.271l-23.813-65.425l21.224-7.725
			c4.556-1.658,8.261-2.718,11.115-3.18c2.884-0.473,5.763-0.348,8.639,0.369c2.875,0.72,5.406,2.124,7.593,4.213
			c2.187,2.09,3.88,4.784,5.08,8.081c1.222,3.357,1.658,6.585,1.309,9.682c-0.35,3.099-1.493,5.9-3.434,8.405
			c-1.403,1.835-3.49,3.562-6.262,5.182l27.876,22.444l-14.029,5.106l-25.112-22.127L326.351,736.797z M322.685,726.725l7.464-2.717
			c4.557-1.658,7.459-2.918,8.707-3.78c1.91-1.374,3.177-2.998,3.803-4.872c0.624-1.874,0.556-3.859-0.208-5.959
			c-0.73-2.008-1.914-3.529-3.546-4.565c-1.634-1.035-3.542-1.478-5.729-1.327c-1.591,0.104-4.066,0.768-7.423,1.989l-9.533,3.47
			L322.685,726.725z"/>
		<path fill="#FFFFFF" d="M436.634,691.564c1.898,5.217,2.574,10.572,2.027,16.066c-0.654,7.063-2.989,13.191-7.006,18.387
			c-4.016,5.195-9.711,9.137-17.085,11.82c-12.081,4.397-22.757,3.7-32.027-2.092c-7.248-4.524-12.4-10.984-15.455-19.378
			c-2.193-6.025-2.913-12.061-2.16-18.106c0.599-4.699,2.018-8.983,4.258-12.854c2.24-3.87,4.996-7.097,8.266-9.679
			s7.243-4.725,11.92-6.427c5.666-2.062,10.866-2.953,15.602-2.674c4.736,0.28,9.114,1.419,13.135,3.418
			c4.02,1.999,7.625,4.744,10.813,8.234C432.109,681.771,434.681,686.199,436.634,691.564z M424.427,695.804
			c-1.669-4.587-4.152-8.376-7.447-11.369c-3.297-2.993-7.116-4.812-11.458-5.455c-4.342-0.643-8.521-0.233-12.537,1.229
			c-3.957,1.44-7.345,3.794-10.161,7.06c-2.818,3.266-4.549,7.021-5.195,11.261c-0.646,4.241-0.15,8.609,1.486,13.106
			c1.68,4.616,4.116,8.372,7.309,11.266c3.192,2.896,6.85,4.738,10.975,5.529c4.123,0.79,8.358,0.395,12.706-1.188
			c6.534-2.379,11.164-6.541,13.888-12.489S426.86,702.488,424.427,695.804z"/>
		<path fill="#FFFFFF" d="M480.173,637.984l3.83,10.521l-19.83,7.218l19.983,54.902l-11.736,4.271l-19.983-54.902l-19.604,7.136
			l-3.829-10.522L480.173,637.984z"/>
		<path fill="#FFFFFF" d="M566.179,644.414c1.898,5.216,2.575,10.571,2.029,16.066c-0.656,7.062-2.99,13.19-7.006,18.387
			c-4.017,5.195-9.711,9.136-17.086,11.819c-12.081,4.397-22.757,3.7-32.027-2.092c-7.248-4.524-12.4-10.983-15.455-19.378
			c-2.193-6.025-2.913-12.061-2.16-18.105c0.598-4.699,2.018-8.984,4.259-12.855c2.239-3.87,4.995-7.096,8.265-9.679
			c3.27-2.581,7.243-4.724,11.92-6.426c5.666-2.063,10.866-2.953,15.602-2.675c4.736,0.28,9.113,1.419,13.135,3.418
			c4.02,2,7.625,4.745,10.813,8.234C561.655,634.62,564.226,639.049,566.179,644.414z M553.973,648.652
			c-1.669-4.586-4.152-8.375-7.447-11.368c-3.298-2.993-7.116-4.812-11.457-5.456c-4.343-0.643-8.521-0.232-12.538,1.229
			c-3.957,1.44-7.346,3.794-10.162,7.06c-2.817,3.267-4.548,7.021-5.194,11.261c-0.646,4.241-0.151,8.61,1.485,13.106
			c1.681,4.617,4.117,8.372,7.31,11.267c3.192,2.896,6.85,4.738,10.975,5.529c4.123,0.789,8.358,0.395,12.706-1.188
			c6.534-2.379,11.164-6.541,13.888-12.49C556.261,661.654,556.406,655.338,553.973,648.652z"/>
		<path fill="#FFFFFF" d="M609.719,590.833l3.829,10.522l-19.828,7.217l19.983,54.902l-11.737,4.272l-19.983-54.903l-19.604,7.136
			l-3.83-10.522L609.719,590.833z"/>
		<path fill="#FFFFFF" d="M659.161,615.307l10.163,27.924l-11.781,4.288l-10.163-27.924l-38.021-28.631l14.479-5.27l19.53,15.603
			l3.219,2.546c0.784,0.665,1.865,1.63,3.242,2.894c0.274-2.883,0.662-5.502,1.163-7.857l5.177-24.952l13.849-5.041L659.161,615.307
			z"/>
		<path fill="#FFFFFF" d="M675.729,566.808l21.134-7.692c5.396-1.964,9.666-3.009,12.812-3.135c4.153-0.154,7.94,0.852,11.36,3.02
			c3.419,2.167,5.97,5.56,7.65,10.176c1.517,4.166,1.797,8.181,0.844,12.041c-0.955,3.861-2.99,7.105-6.107,9.734
			c-2.388,2.023-6.609,4.137-12.664,6.34l-9.397,3.421l9.918,27.249l-11.736,4.271L675.729,566.808z M697.693,590.64l8.139-2.962
			c2.098-0.764,3.521-1.333,4.268-1.707c1.594-0.749,2.902-1.539,3.924-2.37c1.022-0.829,1.818-1.79,2.39-2.881
			c0.569-1.09,0.884-2.257,0.94-3.499c0.057-1.243-0.138-2.479-0.585-3.709c-0.753-2.068-1.961-3.641-3.627-4.714
			c-1.663-1.075-3.734-1.519-6.212-1.329c-1.723,0.117-4.427,0.848-8.114,2.189l-7.734,2.815L697.693,590.64z"/>
		<path fill="#FFFFFF" d="M761.961,592.607l-0.502,17.089l-12.905,4.696l4.605-75.768l9.893-3.601l51.916,55.196l-13.265,4.828
			l-11.504-12.719L761.961,592.607z M762.224,581.156l20.279-7.381l-13.476-15.058c-2.124-2.384-4.224-4.98-6.298-7.79
			c0.26,3.606,0.329,7.06,0.207,10.363L762.224,581.156z"/>
		<path fill="#FFFFFF" d="M857.416,508.316l-5.163,12.115c-5.796-2.678-11.931-2.838-18.406-0.481
			c-4.227,1.539-7.828,3.953-10.807,7.244c-2.978,3.291-4.795,7.041-5.453,11.252c-0.656,4.211-0.177,8.536,1.438,12.972
			c1.626,4.467,4.104,8.174,7.433,11.119c3.331,2.947,7.182,4.712,11.552,5.293c4.37,0.583,8.878,0.027,13.525-1.664
			c2.367-0.861,4.655-1.99,6.863-3.388c2.207-1.397,4.076-2.885,5.607-4.46l-5.466-15.019l-12.905,4.697l-3.83-10.522l24.417-8.887
			l12.078,33.185c-6.539,7.031-14.291,12.178-23.254,15.439c-8.154,2.968-15.478,3.741-21.969,2.319
			c-6.493-1.423-11.948-4.309-16.366-8.66c-4.418-4.348-7.646-9.326-9.688-14.932c-2.291-6.295-2.934-12.656-1.93-19.081
			c1.006-6.427,3.691-12.106,8.057-17.039c4.368-4.933,10.072-8.682,17.117-11.246c5.396-1.964,10.558-2.892,15.485-2.784
			C849.488,505.89,853.377,506.731,857.416,508.316z"/>
		<path fill="#FFFFFF" d="M870.114,496.057l43.213-15.728l3.829,10.522l-31.7,11.538l5.892,16.188l29.587-10.769l3.813,10.477
			l-29.587,10.769l6.448,17.716l33.319-12.127l3.83,10.522l-44.831,16.317L870.114,496.057z"/>
	</g>
</g>
<g>
	<defs>
		<rect id="SVGID_149_" y="-8.04" width="1125" height="1132.5"/>
	</defs>
	<clipPath id="SVGID_24_">
		<use xlink:href="#SVGID_149_"  overflow="visible"/>
	</clipPath>
</g>
</svg>
