<?xml version="1.0" encoding="utf-8"?>
<!-- Generator: Adobe Illustrator 16.0.3, SVG Export Plug-In . SVG Version: 6.00 Build 0)  -->
<!DOCTYPE svg PUBLIC "-//W3C//DTD SVG 1.1//EN" "http://www.w3.org/Graphics/SVG/1.1/DTD/svg11.dtd">
<svg version="1.1" id="Calque_1" xmlns="http://www.w3.org/2000/svg" xmlns:xlink="http://www.w3.org/1999/xlink" x="0px" y="0px"
	 width="1125px" height="1125px" viewBox="0 0 1125 1125" enable-background="new 0 0 1125 1125" xml:space="preserve">
<g>
	<defs>
		<rect id="SVGID_23_" y="-8.04" width="1125" height="1132.5"/>
	</defs>
	<clipPath id="SVGID_2_">
		<use xlink:href="#SVGID_23_"  overflow="visible"/>
	</clipPath>
</g>
<g>
	<defs>
		<rect id="SVGID_25_" y="-8.04" width="1125" height="1132.5"/>
	</defs>
	<clipPath id="SVGID_4_">
		<use xlink:href="#SVGID_25_"  overflow="visible"/>
	</clipPath>
	<g clip-path="url(#SVGID_4_)">
		<defs>
			<rect id="SVGID_27_" y="-8.04" width="1125" height="1125"/>
		</defs>
		<clipPath id="SVGID_6_">
			<use xlink:href="#SVGID_27_"  overflow="visible"/>
		</clipPath>
		<g clip-path="url(#SVGID_6_)">
			<defs>
				
					<rect id="SVGID_29_" x="89.833" y="84.527" transform="matrix(-0.9751 0.2219 -0.2219 -0.9751 1228.4653 970.814)" width="939.75" height="939.75"/>
			</defs>
			<clipPath id="SVGID_8_">
				<use xlink:href="#SVGID_29_"  overflow="visible"/>
			</clipPath>
			<g clip-path="url(#SVGID_8_)">
				<defs>
					
						<rect id="SVGID_31_" x="89.833" y="84.527" transform="matrix(-0.9751 0.2219 -0.2219 -0.9751 1228.4653 970.814)" width="939.75" height="939.75"/>
				</defs>
				<clipPath id="SVGID_10_">
					<use xlink:href="#SVGID_31_"  overflow="visible"/>
				</clipPath>
				<path clip-path="url(#SVGID_10_)" fill="#18D7C8" d="M755.354,981.7c72.663-33.188,136.124-84.977,183.511-149.767
					l-21.559-15.771c-44.693,61.11-104.533,109.943-173.039,141.233c-27.53,12.567-56.546,22.365-86.242,29.122
					c-73.791,16.789-150.91,14.447-223.028-6.773c-76.567-22.534-145.779-65.342-200.15-123.802
					c-52.854-56.826-89.942-127.101-107.254-203.218l-26.049,5.927c18.354,80.699,57.682,155.213,113.733,215.484
					c57.638,61.966,131.002,107.35,212.171,131.231c76.487,22.507,158.267,24.996,236.499,7.196
					C695.42,1005.405,726.173,995.023,755.354,981.7z M190.062,309.971c39.302-59.465,92.854-109.029,154.859-143.335
					l-12.933-23.376c-65.76,36.383-122.544,88.939-164.211,151.981c-40.721,61.588-66.661,132.728-75.019,205.721l26.538,3.042
					C127.179,435.163,151.647,368.071,190.062,309.971z M1017.874,450.164c-10.363-45.551-27.272-89.015-50.243-129.188
					c-29.04-50.787-66.968-95.256-112.733-132.168C742.131,97.877,596.544,64.141,455.46,96.24l5.927,26.046
					c133.063-30.275,270.381,1.55,376.735,87.315c43.168,34.814,78.94,76.746,106.318,124.633
					c21.663,37.882,37.606,78.879,47.385,121.856c10.533,46.297,13.618,93.514,9.171,140.335l26.596,2.522
					C1032.308,549.292,1029.039,499.233,1017.874,450.164z M239.988,320.664l-21.574-15.755
					c-72.22,98.869-98.07,223.993-70.927,343.291l26.046-5.927C148.104,530.515,172.326,413.291,239.988,320.664z M818.902,220.426
					c-89.614-69.489-200.651-99.826-312.659-85.418c-13.462,1.737-27.037,4.151-40.33,7.176l5.927,26.045
					c12.468-2.836,25.19-5.099,37.819-6.729c104.904-13.493,208.909,14.934,292.876,80.037L818.902,220.426z M972.841,644.604
					c13.321-60.884,13.017-122.783-0.909-183.986l-26.046,5.926c13.047,57.344,13.337,115.334,0.862,172.346
					c-24.324,111.061-95.106,206.401-194.195,261.555l13,23.343C871.323,864.902,946.877,763.141,972.841,644.604z M647.568,940.575
					c-94.273,21.45-192.869,7.769-277.608-38.519c-63.92-34.925-116.865-86.514-153.109-149.19l-23.124,13.378
					c38.699,66.908,95.211,121.979,163.425,159.248c90.469,49.412,195.71,64.018,296.341,41.121L647.568,940.575z M476.544,188.903
					c201.859-45.929,402.734,80.481,448.663,282.343c45.929,201.86-80.479,402.737-282.34,448.666
					C441.007,965.84,240.13,839.43,194.201,637.569C148.272,435.707,274.684,234.832,476.544,188.903z"/>
			</g>
		</g>
	</g>
</g>
<g>
	<defs>
		<rect id="SVGID_33_" y="-8.04" width="1125" height="1125"/>
	</defs>
	<clipPath id="SVGID_12_">
		<use xlink:href="#SVGID_33_"  overflow="visible"/>
	</clipPath>
	<g clip-path="url(#SVGID_12_)">
	</g>
	<g clip-path="url(#SVGID_12_)">
	</g>
	<g clip-path="url(#SVGID_12_)">
	</g>
	<g clip-path="url(#SVGID_12_)">
	</g>
	<g clip-path="url(#SVGID_12_)">
	</g>
	<g clip-path="url(#SVGID_12_)">
	</g>
	<g clip-path="url(#SVGID_12_)">
	</g>
	<g clip-path="url(#SVGID_12_)">
	</g>
	<g clip-path="url(#SVGID_12_)">
	</g>
	<g clip-path="url(#SVGID_12_)">
		<path fill="#FFFFFF" d="M419.564,519.227l-8.702,14.764c-3.134-1.854-6.523-2.91-10.17-3.17c-3.646-0.258-7.305,0.28-10.975,1.615
			c-4.973,1.81-9.221,4.809-12.746,8.996c-3.525,4.188-5.662,9.122-6.41,14.801c-0.748,5.681-0.06,11.44,2.066,17.279
			c2.082,5.723,5.145,10.395,9.189,14.017c4.044,3.622,8.777,5.854,14.201,6.696c5.423,0.842,10.64,0.35,15.651-1.475
			c8.286-3.016,13.544-8.705,15.773-17.068l16.889,4.779c-1.624,5.73-4.63,10.945-9.018,15.648
			c-4.389,4.703-10.192,8.369-17.413,10.997c-10.063,3.663-19.363,4.444-27.902,2.347s-15.903-6.244-22.09-12.438
			c-5.242-5.196-9.164-11.366-11.764-18.509c-3.073-8.443-3.884-16.84-2.432-25.189c1.453-8.349,4.82-15.607,10.105-21.777
			c5.284-6.168,12.207-10.811,20.771-13.928c5.327-1.939,10.304-2.968,14.93-3.088c4.626-0.119,8.761,0.343,12.402,1.385
			C414.196,516.511,416.743,517.618,419.564,519.227z"/>
		<path fill="#FFFFFF" d="M428.66,503.516l56.881-20.703l5.041,13.85l-41.729,15.188l7.756,21.308l38.946-14.175l5.02,13.791
			l-38.946,14.176l8.487,23.321l43.859-15.964l5.041,13.851l-59.012,21.479L428.66,503.516z"/>
		<path fill="#FFFFFF" d="M558.48,464.242l-6.975,15.274c-2.49-1.686-5.224-2.624-8.196-2.814c-2.976-0.192-5.982,0.266-9.02,1.372
			c-4.735,1.723-7.983,4.158-9.744,7.3c-1.761,3.144-2.072,6.274-0.938,9.391c0.732,2.013,1.925,3.601,3.577,4.764
			c1.652,1.165,3.851,1.895,6.596,2.191c2.077,0.183,6.291,0.157,12.641-0.076c6.351-0.233,10.887-0.108,13.611,0.375
			c4.298,0.759,8.075,2.423,11.333,4.991c3.259,2.568,5.749,6.219,7.473,10.954c2.858,7.853,2.436,15.347-1.269,22.481
			c-3.703,7.136-10.646,12.556-20.826,16.261c-6.117,2.227-11.89,3.154-17.319,2.785c-5.431-0.37-10.315-1.73-14.657-4.083
			l7.433-15.308c3.168,2.198,6.524,3.502,10.069,3.909c3.545,0.409,7.014-0.005,10.407-1.24c4.617-1.68,7.846-4.196,9.688-7.548
			c1.841-3.351,2.188-6.604,1.038-9.762c-0.804-2.21-2.058-3.932-3.758-5.168c-1.7-1.235-3.69-1.974-5.969-2.217
			c-1.385-0.122-5.203-0.117-11.457,0.014c-6.253,0.131-10.418,0.105-12.496-0.077c-3.756-0.375-6.974-1.204-9.652-2.486
			c-2.678-1.281-5.052-3.076-7.121-5.384s-3.678-5.041-4.826-8.198c-2.428-6.668-2.254-13.189,0.521-19.561
			c3.56-8.267,10.705-14.354,21.439-18.26c5.445-1.982,10.48-2.91,15.107-2.784C549.816,461.463,554.247,462.431,558.48,464.242z"/>
		<path fill="#FFFFFF" d="M612.844,457.647l44.536-16.209l3.947,10.844l-32.672,11.892l6.071,16.683l30.493-11.099l3.931,10.798
			l-30.493,11.099l6.646,18.259l34.34-12.499l3.946,10.844l-46.203,16.816L612.844,457.647z"/>
		<path fill="#FFFFFF" d="M686.713,430.761l42.068,31.659c3.556,2.66,7.219,6.137,10.986,10.434
			c-2.315-5.21-4.177-9.745-5.583-13.607l-14.708-40.41l11.818-4.302l24.542,67.428l-15.295,5.566l-41.459-31.146
			c-1.73-1.294-3.865-3.071-6.402-5.333c-1.633-1.505-3.543-3.485-5.731-5.943c1.349,2.938,3.098,7.358,5.245,13.258l15.029,41.291
			l-11.817,4.301l-24.542-67.428L686.713,430.761z"/>
		<path fill="#FFFFFF" d="M267.962,712.674l21.996-8.006c5.617-2.045,10.061-3.132,13.335-3.264
			c4.323-0.16,8.265,0.889,11.823,3.143c3.56,2.257,6.215,5.787,7.963,10.592c1.578,4.336,1.871,8.514,0.879,12.533
			c-0.994,4.018-3.113,7.395-6.357,10.131c-2.484,2.105-6.878,4.305-13.18,6.6l-9.781,3.559l10.322,28.361l-12.215,4.447
			L267.962,712.674z M290.823,737.479l8.471-3.084c2.184-0.795,3.664-1.387,4.442-1.775c1.659-0.78,3.021-1.604,4.084-2.467
			c1.063-0.865,1.893-1.863,2.486-2.998s0.921-2.35,0.979-3.643c0.06-1.293-0.144-2.58-0.609-3.859
			c-0.783-2.152-2.041-3.789-3.773-4.908c-1.732-1.117-3.888-1.578-6.467-1.383c-1.793,0.123-4.607,0.883-8.445,2.279l-8.049,2.93
			L290.823,737.479z"/>
		<path fill="#FFFFFF" d="M353.285,726.193l10.459,28.734l-12.215,4.446l-24.785-68.095l22.09-8.041
			c4.742-1.726,8.599-2.828,11.569-3.31c3.001-0.49,5.997-0.362,8.99,0.385c2.993,0.749,5.628,2.21,7.903,4.384
			c2.275,2.176,4.038,4.98,5.287,8.412c1.272,3.494,1.727,6.854,1.362,10.078c-0.363,3.223-1.555,6.139-3.573,8.746
			c-1.461,1.91-3.633,3.707-6.518,5.393l29.014,23.361l-14.602,5.314l-26.138-23.029L353.285,726.193z M349.47,715.709l7.769-2.828
			c4.742-1.727,7.763-3.037,9.062-3.934c1.988-1.431,3.308-3.12,3.958-5.072c0.65-1.949,0.578-4.017-0.217-6.201
			c-0.761-2.09-1.991-3.674-3.69-4.752c-1.699-1.076-3.687-1.537-5.961-1.381c-1.657,0.109-4.232,0.799-7.727,2.07l-9.922,3.611
			L349.47,715.709z"/>
		<path fill="#FFFFFF" d="M468.069,679.114c1.976,5.429,2.68,11.003,2.111,16.722c-0.682,7.35-3.112,13.729-7.292,19.137
			c-4.181,5.408-10.107,9.51-17.782,12.303c-12.575,4.577-23.687,3.852-33.336-2.177c-7.544-4.708-12.906-11.433-16.086-20.169
			c-2.282-6.271-3.031-12.553-2.248-18.846c0.623-4.89,2.1-9.35,4.433-13.379c2.331-4.028,5.199-7.385,8.603-10.074
			c3.402-2.688,7.539-4.916,12.406-6.688c5.896-2.146,11.31-3.074,16.238-2.784c4.93,0.292,9.485,1.478,13.671,3.558
			c4.185,2.082,7.936,4.938,11.255,8.57C463.36,668.922,466.036,673.529,468.069,679.114z M455.364,683.525
			c-1.736-4.773-4.321-8.717-7.752-11.833c-3.431-3.114-7.405-5.007-11.924-5.676c-4.52-0.669-8.87-0.243-13.051,1.278
			c-4.118,1.498-7.645,3.947-10.576,7.348c-2.932,3.398-4.733,7.307-5.406,11.719c-0.673,4.414-0.156,8.961,1.547,13.642
			c1.749,4.806,4.285,8.714,7.607,11.728s7.129,4.932,11.422,5.752c4.292,0.824,8.7,0.412,13.225-1.234
			c6.801-2.476,11.62-6.809,14.455-13C457.746,697.059,457.897,690.484,455.364,683.525z"/>
		<path fill="#FFFFFF" d="M467.007,640.227l19.938-7.256c6.926-2.521,12.468-4.043,16.623-4.566c4.197-0.502,8.23-0.32,12.1,0.553
			c3.867,0.869,7.43,2.383,10.688,4.535c3.257,2.154,6.063,4.79,8.417,7.908c2.354,3.119,4.24,6.628,5.66,10.527
			c1.715,4.712,2.509,9.273,2.383,13.682c-0.127,4.41-0.903,8.492-2.329,12.242c-1.426,3.754-3.278,6.963-5.558,9.629
			c-1.538,1.797-3.476,3.511-5.815,5.139c-4.413,3.02-9.365,5.528-14.856,7.527l-22.465,8.176L467.007,640.227z M500.021,692.926
			l8.096-2.947c6.178-2.248,10.764-4.746,13.755-7.498c3.741-3.409,6.067-7.357,6.979-11.842c0.912-4.482,0.465-9.205-1.34-14.166
			c-1.715-4.711-4.293-8.445-7.734-11.203c-3.442-2.758-7.403-4.293-11.881-4.607c-4.478-0.313-9.945,0.705-16.404,3.057
			l-8.283,3.014L500.021,692.926z"/>
		<path fill="#FFFFFF" d="M551.528,609.463l13.969,38.377c1.328,3.65,2.406,6.174,3.232,7.569c1.211,2.068,2.832,3.827,4.862,5.279
			s4.356,2.31,6.979,2.573c2.622,0.266,5.15-0.045,7.584-0.932c2.371-0.861,4.432-2.17,6.18-3.918
			c1.748-1.75,2.969-3.785,3.662-6.104c0.691-2.318,0.893-4.609,0.6-6.869c-0.216-1.758-1.017-4.541-2.402-8.348L582.09,598.34
			l11.981-4.36l13.201,36.271c1.704,4.68,2.789,8.102,3.258,10.262c0.902,3.842,1.162,7.441,0.776,10.795
			c-0.387,3.357-1.375,6.49-2.966,9.4c-1.59,2.912-3.678,5.43-6.261,7.553c-2.584,2.125-5.998,3.959-10.24,5.504
			c-4.369,1.59-8.612,2.285-12.729,2.088c-4.118-0.197-7.877-1.301-11.277-3.314c-3.401-2.014-6.215-4.576-8.442-7.688
			s-4.466-7.756-6.715-13.934l-13.457-36.973L551.528,609.463z"/>
		<path fill="#FFFFFF" d="M667.144,577.188l-6.882,11.674c-2.477-1.466-5.156-2.301-8.041-2.505
			c-2.883-0.205-5.776,0.22-8.678,1.275c-3.931,1.432-7.29,3.803-10.078,7.113c-2.788,3.313-4.477,7.213-5.068,11.703
			s-0.047,9.047,1.634,13.662c1.646,4.525,4.068,8.219,7.267,11.084c3.197,2.863,6.94,4.629,11.228,5.293
			c4.289,0.666,8.414,0.277,12.377-1.165c6.552-2.385,10.709-6.884,12.472-13.497l13.354,3.779
			c-1.284,4.531-3.659,8.656-7.13,12.375c-3.47,3.717-8.06,6.615-13.77,8.694c-7.956,2.896-15.31,3.515-22.063,1.854
			c-6.751-1.658-12.574-4.937-17.465-9.834c-4.146-4.109-7.246-8.988-9.302-14.635c-2.431-6.676-3.071-13.316-1.923-19.918
			c1.148-6.6,3.812-12.34,7.989-17.219c4.179-4.877,9.654-8.549,16.425-11.012c4.212-1.533,8.146-2.348,11.805-2.442
			c3.658-0.093,6.927,0.271,9.807,1.095C662.898,575.042,664.912,575.916,667.144,577.188z"/>
		<path fill="#FFFFFF" d="M720.995,547.783l3.986,10.952l-20.64,7.512l20.799,57.145l-12.215,4.445l-20.799-57.144l-20.405,7.427
			l-3.986-10.951L720.995,547.783z"/>
		<path fill="#FFFFFF" d="M741.214,540.424l24.784,68.096l-12.262,4.463l-24.784-68.096L741.214,540.424z"/>
		<path fill="#FFFFFF" d="M837.142,544.783c1.976,5.429,2.68,11.002,2.111,16.722c-0.683,7.351-3.112,13.73-7.292,19.136
			c-4.18,5.408-10.107,9.51-17.782,12.304c-12.574,4.577-23.687,3.851-33.336-2.177c-7.543-4.709-12.906-11.434-16.086-20.17
			c-2.282-6.271-3.031-12.551-2.248-18.845c0.623-4.89,2.1-9.35,4.433-13.379c2.331-4.028,5.2-7.386,8.603-10.074
			c3.402-2.687,7.539-4.917,12.406-6.688c5.896-2.146,11.311-3.074,16.238-2.783c4.93,0.292,9.486,1.477,13.671,3.558
			c4.184,2.081,7.936,4.938,11.255,8.57C832.433,534.59,835.108,539.198,837.142,544.783z M824.437,549.194
			c-1.736-4.773-4.32-8.717-7.752-11.833c-3.432-3.114-7.405-5.006-11.924-5.676c-4.52-0.67-8.869-0.244-13.05,1.277
			c-4.119,1.499-7.646,3.948-10.576,7.348c-2.933,3.399-4.734,7.307-5.407,11.72c-0.673,4.415-0.156,8.961,1.547,13.642
			c1.749,4.805,4.285,8.714,7.607,11.727c3.322,3.014,7.129,4.932,11.422,5.753c4.293,0.824,8.7,0.411,13.225-1.235
			c6.802-2.475,11.62-6.808,14.455-13C826.818,562.726,826.97,556.152,824.437,549.194z"/>
		<path fill="#FFFFFF" d="M851.851,500.155l42.484,31.973c3.592,2.686,7.291,6.198,11.096,10.537
			c-2.339-5.262-4.218-9.841-5.638-13.742l-14.854-40.811l11.936-4.344l24.784,68.095l-15.444,5.622l-41.871-31.454
			c-1.748-1.307-3.903-3.102-6.465-5.385c-1.648-1.521-3.579-3.521-5.789-6.003c1.363,2.968,3.129,7.431,5.298,13.39l15.178,41.7
			l-11.935,4.344l-24.785-68.095L851.851,500.155z"/>
	</g>
</g>
</svg>
