<?xml version="1.0" encoding="utf-8"?>
<!-- Generator: Adobe Illustrator 16.0.3, SVG Export Plug-In . SVG Version: 6.00 Build 0)  -->
<!DOCTYPE svg PUBLIC "-//W3C//DTD SVG 1.1//EN" "http://www.w3.org/Graphics/SVG/1.1/DTD/svg11.dtd">
<svg version="1.1" id="Calque_1" xmlns="http://www.w3.org/2000/svg" xmlns:xlink="http://www.w3.org/1999/xlink" x="0px" y="0px"
	 width="1125px" height="1125px" viewBox="0 0 1125 1125" enable-background="new 0 0 1125 1125" xml:space="preserve">
<g>
	<defs>
		<rect id="SVGID_79_" x="1.984" y="-9.04" width="1125" height="1132.5"/>
	</defs>
	<clipPath id="SVGID_2_">
		<use xlink:href="#SVGID_79_"  overflow="visible"/>
	</clipPath>
</g>
<g>
	<defs>
		<rect id="SVGID_81_" x="1.984" y="-9.04" width="1125" height="1125"/>
	</defs>
	<clipPath id="SVGID_4_">
		<use xlink:href="#SVGID_81_"  overflow="visible"/>
	</clipPath>
	<g clip-path="url(#SVGID_4_)">
	</g>
	<g clip-path="url(#SVGID_4_)">
	</g>
	<g clip-path="url(#SVGID_4_)">
	</g>
	<g clip-path="url(#SVGID_4_)">
	</g>
	<g clip-path="url(#SVGID_4_)">
	</g>
	<g clip-path="url(#SVGID_4_)">
	</g>
	<g clip-path="url(#SVGID_4_)">
	</g>
	<g clip-path="url(#SVGID_4_)">
	</g>
	<g clip-path="url(#SVGID_4_)">
	</g>
</g>
<g>
	<defs>
		<rect id="SVGID_83_" x="1.984" y="-9.04" width="1125" height="1132.5"/>
	</defs>
	<clipPath id="SVGID_6_">
		<use xlink:href="#SVGID_83_"  overflow="visible"/>
	</clipPath>
</g>
<g>
	<defs>
		<rect id="SVGID_85_" x="1.984" y="-9.04" width="1125" height="1132.5"/>
	</defs>
	<clipPath id="SVGID_8_">
		<use xlink:href="#SVGID_85_"  overflow="visible"/>
	</clipPath>
</g>
<g>
	<defs>
		<rect id="SVGID_87_" x="1.984" y="-9.04" width="1125" height="1125"/>
	</defs>
	<clipPath id="SVGID_10_">
		<use xlink:href="#SVGID_87_"  overflow="visible"/>
	</clipPath>
	<g clip-path="url(#SVGID_10_)">
	</g>
	<g clip-path="url(#SVGID_10_)">
	</g>
	<g clip-path="url(#SVGID_10_)">
	</g>
	<g clip-path="url(#SVGID_10_)">
	</g>
	<g clip-path="url(#SVGID_10_)">
	</g>
	<g clip-path="url(#SVGID_10_)">
	</g>
	<g clip-path="url(#SVGID_10_)">
	</g>
	<g clip-path="url(#SVGID_10_)">
	</g>
	<g clip-path="url(#SVGID_10_)">
	</g>
</g>
<g>
	<defs>
		<rect id="SVGID_89_" y="-8.04" width="1125" height="1132.5"/>
	</defs>
	<clipPath id="SVGID_12_">
		<use xlink:href="#SVGID_89_"  overflow="visible"/>
	</clipPath>
</g>
<g>
	<defs>
		<rect id="SVGID_91_" y="-8.04" width="1125" height="1132.5"/>
	</defs>
	<clipPath id="SVGID_14_">
		<use xlink:href="#SVGID_91_"  overflow="visible"/>
	</clipPath>
	<g clip-path="url(#SVGID_14_)">
		<defs>
			<rect id="SVGID_93_" y="-8.04" width="1125" height="1125"/>
		</defs>
		<clipPath id="SVGID_16_">
			<use xlink:href="#SVGID_93_"  overflow="visible"/>
		</clipPath>
		<g clip-path="url(#SVGID_16_)">
			<defs>
				<polygon id="SVGID_95_" points="0,214.662 916.331,4.848 1124.82,926.998 208.489,1136.812 				"/>
			</defs>
			<clipPath id="SVGID_18_">
				<use xlink:href="#SVGID_95_"  overflow="visible"/>
			</clipPath>
			<g clip-path="url(#SVGID_18_)">
				<defs>
					<polygon id="SVGID_97_" points="0,214.662 916.331,4.848 1124.82,926.998 208.489,1136.812 					"/>
				</defs>
				<clipPath id="SVGID_20_">
					<use xlink:href="#SVGID_97_"  overflow="visible"/>
				</clipPath>
				<path clip-path="url(#SVGID_20_)" fill="#F0B646" d="M758.057,1000.841c72.663-33.397,136.124-85.516,183.511-150.717
					l-21.559-15.871C875.315,895.75,815.476,944.895,746.97,976.382c-27.53,12.648-56.546,22.508-86.242,29.309
					c-73.791,16.896-150.91,14.539-223.028-6.816c-76.567-22.679-145.779-65.757-200.15-124.59
					c-52.854-57.187-89.942-127.906-107.254-204.507l-26.049,5.963c18.354,81.212,57.682,156.199,113.733,216.854
					c57.638,62.36,131.002,108.031,212.171,132.065c76.487,22.649,158.267,25.155,236.499,7.241
					C698.122,1024.696,728.875,1014.25,758.057,1000.841z M192.764,324.846c39.302-59.842,92.854-109.722,154.859-144.245
					l-12.933-23.524c-65.76,36.614-122.544,89.504-164.211,152.947c-40.721,61.979-66.661,133.57-75.019,207.027l26.538,3.061
					C129.881,450.834,154.35,383.315,192.764,324.846z M1020.576,465.93c-10.363-45.84-27.272-89.58-50.243-130.008
					c-29.04-51.109-66.968-95.86-112.733-133.007c-112.767-91.509-258.354-125.461-399.438-93.157l5.927,26.212
					c133.063-30.468,270.381,1.56,376.735,87.87c43.168,35.035,78.94,77.233,106.318,125.424
					c21.663,38.123,37.606,79.38,47.385,122.631c10.533,46.591,13.618,94.106,9.171,141.227l26.596,2.537
					C1035.01,565.687,1031.741,515.311,1020.576,465.93z M242.69,335.607l-21.574-15.855
					c-72.22,99.498-98.07,225.416-70.927,345.471l26.046-5.963C150.807,546.791,175.028,428.822,242.69,335.607z M821.604,234.732
					c-89.614-69.931-200.651-100.461-312.659-85.961c-13.462,1.749-27.037,4.178-40.33,7.222l5.927,26.211
					c12.468-2.854,25.19-5.132,37.819-6.771c104.904-13.579,208.909,15.028,292.876,80.545L821.604,234.732z M975.543,661.604
					c13.321-61.271,13.017-123.563-0.909-185.155l-26.046,5.964c13.047,57.708,13.337,116.066,0.862,173.44
					c-24.324,111.766-95.106,207.711-194.195,263.216l13,23.49C874.025,883.303,949.579,780.895,975.543,661.604z M650.271,959.455
					c-94.273,21.587-192.869,7.818-277.608-38.763c-63.92-35.147-116.865-87.063-153.109-150.139l-23.124,13.464
					c38.699,67.333,95.211,122.753,163.425,160.26c90.469,49.726,195.71,64.424,296.341,41.382L650.271,959.455z M479.246,203.01
					c201.859-46.22,402.734,80.992,448.663,284.136c45.929,203.142-80.479,405.295-282.34,451.517
					c-201.86,46.219-402.737-80.994-448.666-284.138S277.386,249.23,479.246,203.01z"/>
			</g>
		</g>
	</g>
</g>
<g>
	<defs>
		<rect id="SVGID_99_" x="2.857" y="3.389" width="1125" height="1125"/>
	</defs>
	<clipPath id="SVGID_22_">
		<use xlink:href="#SVGID_99_"  overflow="visible"/>
	</clipPath>
	<g clip-path="url(#SVGID_22_)">
	</g>
	<g clip-path="url(#SVGID_22_)">
	</g>
	<g clip-path="url(#SVGID_22_)">
	</g>
	<g clip-path="url(#SVGID_22_)">
	</g>
	<g clip-path="url(#SVGID_22_)">
	</g>
	<g clip-path="url(#SVGID_22_)">
	</g>
	<g clip-path="url(#SVGID_22_)">
	</g>
	<g clip-path="url(#SVGID_22_)">
	</g>
	<g clip-path="url(#SVGID_22_)">
	</g>
	<g clip-path="url(#SVGID_22_)">
		<path fill="#FFFFFF" d="M415.879,525.202l-8.702,14.764c-3.134-1.854-6.523-2.91-10.17-3.17c-3.646-0.258-7.305,0.28-10.975,1.615
			c-4.973,1.81-9.221,4.809-12.746,8.996c-3.525,4.188-5.662,9.122-6.41,14.801c-0.748,5.681-0.06,11.44,2.066,17.279
			c2.082,5.722,5.145,10.395,9.189,14.017c4.044,3.622,8.777,5.854,14.201,6.695c5.423,0.842,10.64,0.351,15.651-1.474
			c8.286-3.017,13.544-8.706,15.773-17.069l16.889,4.779c-1.624,5.73-4.63,10.946-9.018,15.648
			c-4.389,4.703-10.192,8.369-17.413,10.998c-10.063,3.662-19.363,4.444-27.902,2.346c-8.539-2.098-15.903-6.244-22.09-12.438
			c-5.242-5.197-9.164-11.367-11.764-18.51c-3.073-8.443-3.884-16.84-2.432-25.189c1.453-8.349,4.82-15.607,10.105-21.777
			c5.284-6.168,12.207-10.811,20.771-13.928c5.327-1.939,10.304-2.968,14.93-3.088c4.626-0.119,8.761,0.343,12.402,1.385
			C410.511,522.486,413.058,523.593,415.879,525.202z"/>
		<path fill="#FFFFFF" d="M424.975,509.491l56.881-20.703l5.041,13.85l-41.729,15.188l7.756,21.308l38.946-14.175l5.02,13.791
			l-38.946,14.176l8.487,23.32l43.859-15.964l5.041,13.851l-59.012,21.479L424.975,509.491z"/>
		<path fill="#FFFFFF" d="M554.795,470.217l-6.975,15.274c-2.49-1.686-5.224-2.624-8.196-2.814c-2.976-0.192-5.982,0.266-9.02,1.372
			c-4.735,1.723-7.983,4.158-9.744,7.3c-1.761,3.144-2.072,6.274-0.938,9.391c0.732,2.013,1.925,3.601,3.577,4.764
			c1.652,1.165,3.851,1.895,6.596,2.191c2.077,0.183,6.291,0.157,12.641-0.076c6.351-0.233,10.887-0.108,13.611,0.375
			c4.298,0.759,8.075,2.423,11.333,4.991c3.259,2.568,5.749,6.219,7.473,10.954c2.858,7.853,2.436,15.347-1.269,22.481
			c-3.703,7.136-10.646,12.556-20.826,16.261c-6.117,2.227-11.89,3.154-17.319,2.785c-5.431-0.37-10.315-1.73-14.657-4.083
			l7.433-15.308c3.168,2.198,6.524,3.502,10.069,3.909c3.545,0.409,7.014-0.005,10.407-1.24c4.617-1.68,7.846-4.196,9.688-7.548
			c1.841-3.351,2.188-6.604,1.038-9.762c-0.804-2.21-2.058-3.932-3.758-5.168c-1.7-1.235-3.69-1.974-5.969-2.217
			c-1.385-0.122-5.203-0.117-11.457,0.014c-6.253,0.131-10.418,0.105-12.496-0.077c-3.756-0.375-6.974-1.204-9.652-2.486
			c-2.678-1.281-5.052-3.076-7.121-5.384s-3.678-5.041-4.826-8.198c-2.428-6.668-2.254-13.189,0.521-19.561
			c3.56-8.267,10.705-14.354,21.439-18.26c5.445-1.982,10.48-2.91,15.107-2.784C546.131,467.438,550.562,468.406,554.795,470.217z"
			/>
		<path fill="#FFFFFF" d="M609.158,463.622l44.536-16.209l3.947,10.844l-32.672,11.892l6.071,16.683l30.493-11.099l3.931,10.798
			l-30.493,11.099l6.646,18.259l34.34-12.499l3.946,10.844L633.7,531.05L609.158,463.622z"/>
		<path fill="#FFFFFF" d="M683.027,436.736l42.068,31.659c3.556,2.66,7.219,6.137,10.986,10.434
			c-2.315-5.21-4.177-9.745-5.583-13.607l-14.708-40.41l11.818-4.302l24.542,67.428l-15.295,5.566l-41.459-31.146
			c-1.73-1.294-3.865-3.071-6.402-5.333c-1.633-1.505-3.543-3.485-5.731-5.943c1.349,2.938,3.098,7.358,5.245,13.258l15.029,41.291
			l-11.817,4.301l-24.542-67.428L683.027,436.736z"/>
		<path fill="#FFFFFF" d="M294.791,707.542l24.785,68.096l-12.262,4.463l-24.785-68.095L294.791,707.542z"/>
		<path fill="#FFFFFF" d="M325.586,696.334l42.483,31.973c3.593,2.687,7.291,6.197,11.097,10.537
			c-2.339-5.262-4.218-9.842-5.638-13.742l-14.854-40.811l11.934-4.344l24.785,68.095l-15.444,5.621l-41.871-31.454
			c-1.747-1.306-3.903-3.102-6.465-5.385c-1.649-1.52-3.579-3.521-5.788-6.002c1.361,2.968,3.128,7.43,5.297,13.39l15.178,41.699
			l-11.935,4.344l-24.785-68.096L325.586,696.334z"/>
		<path fill="#FFFFFF" d="M444.289,662.935l-6.881,11.674c-2.478-1.465-5.157-2.301-8.041-2.506
			c-2.884-0.204-5.776,0.221-8.679,1.276c-3.931,1.432-7.291,3.803-10.077,7.113c-2.788,3.313-4.478,7.214-5.069,11.703
			c-0.591,4.49-0.046,9.046,1.635,13.663c1.646,4.523,4.068,8.218,7.267,11.082c3.197,2.864,6.94,4.629,11.228,5.294
			c4.288,0.666,8.413,0.277,12.376-1.165c6.552-2.385,10.709-6.884,12.472-13.496l13.354,3.778
			c-1.283,4.531-3.66,8.656-7.129,12.374c-3.471,3.718-8.06,6.617-13.77,8.695c-7.956,2.896-15.31,3.515-22.063,1.854
			c-6.751-1.658-12.574-4.937-17.465-9.834c-4.146-4.109-7.247-8.987-9.303-14.635c-2.43-6.676-3.07-13.316-1.922-19.918
			c1.148-6.6,3.811-12.34,7.989-17.219c4.179-4.877,9.653-8.548,16.424-11.013c4.212-1.532,8.146-2.347,11.806-2.441
			c3.657-0.094,6.926,0.271,9.806,1.095C440.045,660.788,442.059,661.662,444.289,662.935z"/>
		<path fill="#FFFFFF" d="M463.556,646.117l13.968,38.377c1.329,3.65,2.406,6.174,3.231,7.568c1.213,2.068,2.833,3.828,4.863,5.279
			c2.03,1.453,4.356,2.311,6.979,2.574c2.623,0.266,5.152-0.046,7.586-0.932c2.37-0.863,4.43-2.17,6.179-3.918
			c1.748-1.75,2.969-3.785,3.662-6.104c0.692-2.32,0.893-4.609,0.6-6.87c-0.216-1.758-1.017-4.54-2.402-8.349l-14.104-38.75
			l11.981-4.361l13.202,36.271c1.703,4.68,2.789,8.1,3.258,10.262c0.902,3.841,1.161,7.439,0.775,10.795
			c-0.387,3.356-1.375,6.489-2.966,9.4c-1.59,2.911-3.678,5.43-6.261,7.552c-2.584,2.124-5.998,3.959-10.24,5.503
			c-4.369,1.591-8.611,2.287-12.729,2.089c-4.118-0.197-7.877-1.302-11.277-3.315c-3.4-2.013-6.215-4.575-8.441-7.687
			c-2.229-3.11-4.467-7.756-6.715-13.934l-13.457-36.973L463.556,646.117z"/>
		<path fill="#FFFFFF" d="M520.84,625.268l23.307-8.483c6.053-2.203,10.852-3.242,14.395-3.119c3.555,0.156,6.749,1.288,9.585,3.401
			c2.837,2.113,4.891,4.917,6.162,8.41c1.261,3.464,1.341,6.889,0.241,10.273c-1.1,3.388-3.353,6.371-6.759,8.953
			c4.593-1.069,8.823-0.561,12.693,1.528c3.869,2.09,6.605,5.334,8.207,9.733c1.192,3.275,1.51,6.552,0.953,9.828
			c-0.556,3.277-1.854,6.241-3.893,8.891c-1.369,1.771-3.389,3.504-6.058,5.199c-2.668,1.696-5.798,3.197-9.385,4.502l-24.664,8.978
			L520.84,625.268z M542.862,648.787l12.122-4.412c1.341-0.488,2.745-1.192,4.212-2.116c1-0.646,1.872-1.555,2.611-2.726
			c0.74-1.17,1.199-2.433,1.378-3.788c0.178-1.354,0.018-2.717-0.482-4.091c-0.567-1.561-1.576-2.898-3.024-4.014
			c-1.449-1.116-3.064-1.721-4.847-1.813c-1.783-0.093-4.188,0.411-7.215,1.513l-11.092,4.037L542.862,648.787z M553.696,678.553
			l12.215-4.446c3.276-1.192,5.748-2.507,7.416-3.944c1.667-1.438,2.724-3.146,3.168-5.129c0.445-1.98,0.321-3.924-0.371-5.827
			c-0.671-1.841-1.764-3.314-3.28-4.424c-1.517-1.108-3.283-1.738-5.298-1.888c-2.016-0.148-4.74,0.4-8.172,1.648l-12.73,4.634
			L553.696,678.553z"/>
		<path fill="#FFFFFF" d="M614.008,650.877l-0.522,17.786l-13.432,4.889l4.793-78.86l10.297-3.748l54.035,57.449l-13.807,5.024
			l-11.973-13.237L614.008,650.877z M614.281,638.958l21.106-7.683l-14.025-15.672c-2.21-2.481-4.396-5.184-6.555-8.107
			c0.271,3.753,0.343,7.349,0.216,10.786L614.281,638.958z"/>
		<path fill="#FFFFFF" d="M698.683,560.537l3.986,10.952l-20.639,7.512l20.799,57.144l-12.216,4.446l-20.799-57.144l-20.405,7.427
			l-3.986-10.952L698.683,560.537z"/>
		<path fill="#FFFFFF" d="M718.901,553.179l24.784,68.095l-12.262,4.463l-24.784-68.095L718.901,553.179z"/>
		<path fill="#FFFFFF" d="M814.829,557.537c1.976,5.429,2.68,11.003,2.111,16.723c-0.683,7.35-3.112,13.729-7.292,19.137
			s-10.107,9.509-17.782,12.303c-12.574,4.576-23.687,3.851-33.336-2.178c-7.543-4.709-12.906-11.433-16.086-20.169
			c-2.282-6.271-3.031-12.552-2.248-18.845c0.623-4.891,2.1-9.351,4.433-13.379c2.331-4.029,5.2-7.386,8.603-10.074
			c3.402-2.687,7.539-4.917,12.406-6.688c5.896-2.146,11.311-3.074,16.238-2.783c4.93,0.292,9.486,1.476,13.671,3.557
			c4.184,2.082,7.937,4.938,11.256,8.571C810.12,547.345,812.796,551.952,814.829,557.537z M802.124,561.949
			c-1.736-4.773-4.32-8.718-7.752-11.834c-3.431-3.113-7.405-5.006-11.924-5.676s-8.869-0.244-13.05,1.278
			c-4.119,1.499-7.646,3.948-10.576,7.347c-2.933,3.399-4.734,7.308-5.406,11.721c-0.674,4.414-0.157,8.961,1.546,13.641
			c1.749,4.806,4.285,8.715,7.607,11.728c3.322,3.014,7.129,4.932,11.422,5.753c4.293,0.824,8.701,0.411,13.225-1.235
			c6.802-2.476,11.621-6.808,14.455-12.999C804.506,575.481,804.657,568.907,802.124,561.949z"/>
		<path fill="#FFFFFF" d="M829.538,512.91l42.484,31.973c3.592,2.687,7.291,6.197,11.096,10.537
			c-2.339-5.262-4.218-9.841-5.637-13.743l-14.854-40.811l11.935-4.344l24.784,68.096l-15.444,5.621l-41.871-31.454
			c-1.747-1.306-3.903-3.102-6.465-5.385c-1.648-1.52-3.579-3.521-5.789-6.002c1.363,2.967,3.129,7.43,5.298,13.389l15.178,41.699
			l-11.935,4.344l-24.785-68.095L829.538,512.91z"/>
	</g>
</g>
<g>
	<defs>
		<rect id="SVGID_101_" y="-8.04" width="1125" height="1132.5"/>
	</defs>
	<clipPath id="SVGID_24_">
		<use xlink:href="#SVGID_101_"  overflow="visible"/>
	</clipPath>
</g>
</svg>
