<?xml version="1.0" encoding="utf-8"?>
<!-- Generator: Adobe Illustrator 16.0.3, SVG Export Plug-In . SVG Version: 6.00 Build 0)  -->
<!DOCTYPE svg PUBLIC "-//W3C//DTD SVG 1.1//EN" "http://www.w3.org/Graphics/SVG/1.1/DTD/svg11.dtd">
<svg version="1.1" id="Calque_1" xmlns="http://www.w3.org/2000/svg" xmlns:xlink="http://www.w3.org/1999/xlink" x="0px" y="0px"
	 width="1125px" height="1125px" viewBox="0 0 1125 1125" enable-background="new 0 0 1125 1125" xml:space="preserve">
<g>
	<defs>
		<rect id="SVGID_103_" x="1.984" y="-9.04" width="1125" height="1132.5"/>
	</defs>
	<clipPath id="SVGID_2_">
		<use xlink:href="#SVGID_103_"  overflow="visible"/>
	</clipPath>
</g>
<g>
	<defs>
		<rect id="SVGID_105_" x="1.984" y="-9.04" width="1125" height="1125"/>
	</defs>
	<clipPath id="SVGID_4_">
		<use xlink:href="#SVGID_105_"  overflow="visible"/>
	</clipPath>
	<g clip-path="url(#SVGID_4_)">
	</g>
	<g clip-path="url(#SVGID_4_)">
	</g>
	<g clip-path="url(#SVGID_4_)">
	</g>
	<g clip-path="url(#SVGID_4_)">
	</g>
	<g clip-path="url(#SVGID_4_)">
	</g>
	<g clip-path="url(#SVGID_4_)">
	</g>
	<g clip-path="url(#SVGID_4_)">
	</g>
	<g clip-path="url(#SVGID_4_)">
	</g>
	<g clip-path="url(#SVGID_4_)">
	</g>
</g>
<g>
	<defs>
		<rect id="SVGID_107_" x="1.984" y="-9.04" width="1125" height="1132.5"/>
	</defs>
	<clipPath id="SVGID_6_">
		<use xlink:href="#SVGID_107_"  overflow="visible"/>
	</clipPath>
</g>
<g>
	<defs>
		<rect id="SVGID_109_" x="1.984" y="-9.04" width="1125" height="1132.5"/>
	</defs>
	<clipPath id="SVGID_8_">
		<use xlink:href="#SVGID_109_"  overflow="visible"/>
	</clipPath>
</g>
<g>
	<defs>
		<rect id="SVGID_111_" x="1.984" y="-9.04" width="1125" height="1125"/>
	</defs>
	<clipPath id="SVGID_10_">
		<use xlink:href="#SVGID_111_"  overflow="visible"/>
	</clipPath>
	<g clip-path="url(#SVGID_10_)">
	</g>
	<g clip-path="url(#SVGID_10_)">
	</g>
	<g clip-path="url(#SVGID_10_)">
	</g>
	<g clip-path="url(#SVGID_10_)">
	</g>
	<g clip-path="url(#SVGID_10_)">
	</g>
	<g clip-path="url(#SVGID_10_)">
	</g>
	<g clip-path="url(#SVGID_10_)">
	</g>
	<g clip-path="url(#SVGID_10_)">
	</g>
	<g clip-path="url(#SVGID_10_)">
	</g>
</g>
<g>
	<defs>
		<rect id="SVGID_113_" y="-8.04" width="1125" height="1132.5"/>
	</defs>
	<clipPath id="SVGID_12_">
		<use xlink:href="#SVGID_113_"  overflow="visible"/>
	</clipPath>
</g>
<g>
	<defs>
		<rect id="SVGID_115_" y="-8.04" width="1125" height="1132.5"/>
	</defs>
	<clipPath id="SVGID_14_">
		<use xlink:href="#SVGID_115_"  overflow="visible"/>
	</clipPath>
	<g clip-path="url(#SVGID_14_)">
		<defs>
			<rect id="SVGID_117_" y="-8.04" width="1125" height="1125"/>
		</defs>
		<clipPath id="SVGID_16_">
			<use xlink:href="#SVGID_117_"  overflow="visible"/>
		</clipPath>
		<g clip-path="url(#SVGID_16_)">
			<defs>
				<polygon id="SVGID_119_" points="0,214.662 916.331,4.848 1124.82,926.998 208.489,1136.812 				"/>
			</defs>
			<clipPath id="SVGID_18_">
				<use xlink:href="#SVGID_119_"  overflow="visible"/>
			</clipPath>
			<g clip-path="url(#SVGID_18_)">
				<defs>
					<polygon id="SVGID_121_" points="0,214.662 916.331,4.848 1124.82,926.998 208.489,1136.812 					"/>
				</defs>
				<clipPath id="SVGID_20_">
					<use xlink:href="#SVGID_121_"  overflow="visible"/>
				</clipPath>
				<path clip-path="url(#SVGID_20_)" fill="#F0B646" d="M758.057,1000.841c72.663-33.397,136.124-85.516,183.511-150.717
					l-21.559-15.871C875.315,895.75,815.476,944.895,746.97,976.382c-27.53,12.648-56.546,22.508-86.242,29.309
					c-73.791,16.896-150.91,14.539-223.028-6.816c-76.567-22.679-145.779-65.757-200.15-124.59
					c-52.854-57.187-89.942-127.906-107.254-204.507l-26.049,5.963c18.354,81.212,57.682,156.199,113.733,216.854
					c57.638,62.36,131.002,108.031,212.171,132.065c76.487,22.649,158.267,25.155,236.499,7.241
					C698.122,1024.696,728.875,1014.25,758.057,1000.841z M192.764,324.846c39.302-59.842,92.854-109.722,154.859-144.245
					l-12.933-23.524c-65.76,36.614-122.544,89.504-164.211,152.947c-40.721,61.979-66.661,133.57-75.019,207.027l26.538,3.061
					C129.881,450.834,154.35,383.315,192.764,324.846z M1020.576,465.93c-10.363-45.84-27.272-89.58-50.243-130.008
					c-29.04-51.109-66.968-95.86-112.733-133.007c-112.767-91.509-258.354-125.461-399.438-93.157l5.927,26.212
					c133.063-30.468,270.381,1.56,376.735,87.87c43.168,35.035,78.94,77.233,106.318,125.424
					c21.663,38.123,37.606,79.38,47.385,122.631c10.533,46.591,13.618,94.106,9.171,141.227l26.596,2.537
					C1035.01,565.687,1031.741,515.311,1020.576,465.93z M242.69,335.607l-21.574-15.855
					c-72.22,99.498-98.07,225.416-70.927,345.471l26.046-5.963C150.807,546.791,175.028,428.822,242.69,335.607z M821.604,234.732
					c-89.614-69.931-200.651-100.461-312.659-85.961c-13.462,1.749-27.037,4.178-40.33,7.222l5.927,26.211
					c12.468-2.854,25.19-5.132,37.819-6.771c104.904-13.579,208.909,15.028,292.876,80.545L821.604,234.732z M975.543,661.604
					c13.321-61.271,13.017-123.563-0.909-185.155l-26.046,5.964c13.047,57.708,13.337,116.066,0.862,173.44
					c-24.324,111.766-95.106,207.711-194.195,263.216l13,23.49C874.025,883.303,949.579,780.895,975.543,661.604z M650.271,959.455
					c-94.273,21.587-192.869,7.818-277.608-38.763c-63.92-35.147-116.865-87.063-153.109-150.139l-23.124,13.464
					c38.699,67.333,95.211,122.753,163.425,160.26c90.469,49.726,195.71,64.424,296.341,41.382L650.271,959.455z M479.246,203.01
					c201.859-46.22,402.734,80.992,448.663,284.136c45.929,203.142-80.479,405.295-282.34,451.517
					c-201.86,46.219-402.737-80.994-448.666-284.138S277.386,249.23,479.246,203.01z"/>
			</g>
		</g>
	</g>
</g>
<g>
	<defs>
		<rect id="SVGID_123_" x="2.857" y="3.389" width="1125" height="1125"/>
	</defs>
	<clipPath id="SVGID_22_">
		<use xlink:href="#SVGID_123_"  overflow="visible"/>
	</clipPath>
	<g clip-path="url(#SVGID_22_)">
	</g>
	<g clip-path="url(#SVGID_22_)">
	</g>
	<g clip-path="url(#SVGID_22_)">
	</g>
	<g clip-path="url(#SVGID_22_)">
	</g>
	<g clip-path="url(#SVGID_22_)">
	</g>
	<g clip-path="url(#SVGID_22_)">
	</g>
	<g clip-path="url(#SVGID_22_)">
	</g>
	<g clip-path="url(#SVGID_22_)">
	</g>
	<g clip-path="url(#SVGID_22_)">
	</g>
	<g clip-path="url(#SVGID_22_)">
		<path fill="#FFFFFF" d="M229.408,579.684l26.485,72.769l-13.104,4.77l-26.485-72.769L229.408,579.684z"/>
		<path fill="#FFFFFF" d="M262.316,567.706l45.399,34.168c3.839,2.869,7.791,6.622,11.857,11.259
			c-2.5-5.622-4.508-10.517-6.025-14.685l-15.873-43.611l12.754-4.642l26.485,72.768l-16.504,6.008l-44.744-33.613
			c-1.868-1.396-4.171-3.314-6.909-5.754c-1.762-1.624-3.824-3.763-6.186-6.414c1.456,3.171,3.343,7.939,5.66,14.308l16.22,44.562
			l-12.754,4.642l-26.485-72.769L262.316,567.706z"/>
		<path fill="#FFFFFF" d="M389.165,532.015l-7.354,12.476c-2.646-1.566-5.511-2.459-8.592-2.679
			c-3.082-0.218-6.173,0.236-9.273,1.365c-4.201,1.528-7.791,4.063-10.771,7.602c-2.979,3.538-4.784,7.707-5.416,12.506
			s-0.05,9.666,1.745,14.601c1.76,4.834,4.349,8.782,7.766,11.843c3.418,3.061,7.417,4.946,12,5.657
			c4.582,0.711,8.99,0.296,13.225-1.245c7.002-2.549,11.444-7.355,13.328-14.423l14.27,4.038c-1.372,4.842-3.911,9.249-7.619,13.223
			s-8.612,7.071-14.714,9.292c-8.502,3.095-16.36,3.756-23.576,1.983c-7.215-1.772-13.438-5.276-18.665-10.511
			c-4.43-4.391-7.743-9.604-9.939-15.639c-2.597-7.135-3.281-14.23-2.055-21.284c1.228-7.055,4.072-13.188,8.539-18.4
			c4.465-5.212,10.314-9.135,17.55-11.769c4.501-1.639,8.706-2.508,12.615-2.609c3.908-0.101,7.401,0.289,10.479,1.17
			C384.63,529.721,386.782,530.655,389.165,532.015z"/>
		<path fill="#FFFFFF" d="M409.755,514.043l14.926,41.011c1.42,3.901,2.571,6.597,3.453,8.089c1.295,2.209,3.027,4.09,5.197,5.641
			c2.169,1.553,4.655,2.469,7.458,2.752c2.802,0.281,5.505-0.05,8.104-0.996c2.534-0.922,4.735-2.318,6.604-4.188
			c1.867-1.868,3.173-4.043,3.912-6.521c0.741-2.478,0.954-4.925,0.642-7.341c-0.23-1.88-1.086-4.854-2.566-8.921l-15.072-41.411
			l12.803-4.66l14.107,38.76c1.82,5.002,2.98,8.657,3.481,10.967c0.966,4.104,1.241,7.95,0.829,11.536
			c-0.413,3.587-1.469,6.935-3.169,10.046c-1.699,3.11-3.93,5.801-6.69,8.07c-2.762,2.27-6.409,4.23-10.943,5.881
			c-4.668,1.698-9.202,2.442-13.602,2.232c-4.401-0.211-8.418-1.393-12.052-3.544s-6.641-4.89-9.021-8.214
			c-2.381-3.324-4.773-8.288-7.176-14.89l-14.381-39.511L409.755,514.043z"/>
		<path fill="#FFFFFF" d="M470.97,491.763l24.906-9.065c6.469-2.354,11.596-3.465,15.382-3.333
			c3.799,0.166,7.213,1.378,10.244,3.635c3.03,2.258,5.225,5.254,6.584,8.987c1.347,3.701,1.433,7.361,0.258,10.979
			s-3.582,6.808-7.222,9.566c4.907-1.144,9.428-0.6,13.563,1.633c4.136,2.233,7.06,5.7,8.771,10.401
			c1.273,3.501,1.613,7.002,1.019,10.504c-0.594,3.501-1.981,6.668-4.159,9.5c-1.464,1.893-3.621,3.744-6.474,5.557
			s-6.195,3.416-10.029,4.811l-26.357,9.594L470.97,491.763z M494.504,516.896l12.953-4.715c1.434-0.521,2.935-1.275,4.501-2.261
			c1.07-0.691,2-1.663,2.791-2.913c0.791-1.252,1.281-2.6,1.473-4.047c0.19-1.447,0.019-2.905-0.516-4.373
			c-0.606-1.667-1.685-3.096-3.231-4.289c-1.549-1.192-3.274-1.838-5.181-1.938c-1.904-0.1-4.475,0.439-7.709,1.616l-11.853,4.314
			L494.504,516.896z M506.081,548.705l13.054-4.752c3.501-1.273,6.142-2.679,7.924-4.215c1.782-1.535,2.911-3.361,3.386-5.48
			c0.477-2.117,0.344-4.192-0.397-6.227c-0.716-1.968-1.884-3.543-3.505-4.729c-1.62-1.184-3.508-1.857-5.662-2.017
			c-2.152-0.16-5.064,0.427-8.731,1.762l-13.604,4.951L506.081,548.705z"/>
		<path fill="#FFFFFF" d="M570.532,519.129l-0.558,19.008l-14.354,5.224l5.123-84.272l11.002-4.005l57.744,61.392l-14.753,5.369
			l-12.796-14.146L570.532,519.129z M570.825,506.393l22.555-8.209l-14.988-16.747c-2.361-2.652-4.697-5.54-7.005-8.665
			c0.29,4.011,0.366,7.853,0.231,11.526L570.825,506.393z"/>
		<path fill="#FFFFFF" d="M661.021,422.59l4.259,11.703l-22.056,8.027l22.226,61.065l-13.054,4.751l-22.226-61.064l-21.806,7.937
			l-4.26-11.703L661.021,422.59z"/>
		<path fill="#FFFFFF" d="M682.626,414.726l26.485,72.769l-13.104,4.77l-26.485-72.769L682.626,414.726z"/>
		<path fill="#FFFFFF" d="M715.532,402.748l45.4,34.168c3.839,2.869,7.791,6.623,11.857,11.26c-2.5-5.623-4.508-10.518-6.024-14.686
			l-15.873-43.611l12.753-4.643l26.486,72.77l-16.505,6.007L728.883,430.4c-1.867-1.396-4.171-3.315-6.909-5.755
			c-1.762-1.624-3.823-3.763-6.186-6.414c1.455,3.171,3.343,7.94,5.66,14.308l16.22,44.562l-12.753,4.642l-26.486-72.769
			L715.532,402.748z"/>
		<path fill="#FFFFFF" d="M845.446,363.959l-5.744,13.476c-6.445-2.978-13.269-3.156-20.471-0.535
			c-4.701,1.711-8.708,4.396-12.02,8.056c-3.313,3.66-5.334,7.832-6.065,12.517c-0.73,4.683-0.198,9.492,1.599,14.427
			c1.808,4.969,4.564,9.092,8.268,12.368c3.704,3.278,7.986,5.24,12.848,5.887c4.86,0.648,9.875,0.03,15.043-1.851
			c2.634-0.958,5.179-2.214,7.634-3.77c2.455-1.553,4.534-3.207,6.237-4.96l-6.08-16.704l-14.354,5.224l-4.26-11.702l27.157-9.885
			l13.435,36.909c-7.273,7.821-15.895,13.545-25.863,17.173c-9.07,3.302-17.215,4.161-24.436,2.579
			c-7.223-1.581-13.29-4.792-18.203-9.63c-4.914-4.838-8.506-10.375-10.775-16.609c-2.548-7.002-3.264-14.076-2.145-21.223
			c1.117-7.148,4.104-13.465,8.961-18.951s11.201-9.656,19.037-12.508c6.002-2.185,11.743-3.217,17.224-3.098
			C836.628,361.26,840.953,362.197,845.446,363.959z"/>
		<path fill="#FFFFFF" d="M534.231,614.671l-5.894,12.906c-2.104-1.424-4.413-2.217-6.926-2.378c-2.514-0.162-5.054,0.226-7.62,1.16
			c-4.002,1.456-6.746,3.512-8.233,6.168s-1.753,5.301-0.794,7.935c0.619,1.7,1.626,3.042,3.023,4.025
			c1.396,0.983,3.254,1.601,5.572,1.851c1.756,0.155,5.316,0.133,10.682-0.064c5.365-0.196,9.199-0.091,11.5,0.317
			c3.632,0.643,6.824,2.048,9.577,4.218s4.858,5.255,6.314,9.256c2.415,6.636,2.058,12.967-1.072,18.995
			c-3.13,6.03-8.996,10.609-17.598,13.74c-5.169,1.881-10.047,2.665-14.634,2.353c-4.589-0.313-8.717-1.462-12.386-3.45l6.28-12.934
			c2.678,1.858,5.514,2.96,8.509,3.304c2.995,0.345,5.926-0.005,8.794-1.049c3.9-1.42,6.629-3.545,8.186-6.377
			c1.555-2.832,1.848-5.581,0.877-8.249c-0.68-1.866-1.738-3.322-3.176-4.366c-1.437-1.043-3.118-1.67-5.043-1.875
			c-1.17-0.102-4.396-0.098-9.681,0.013c-5.283,0.11-8.804,0.089-10.558-0.065c-3.175-0.317-5.894-1.018-8.156-2.101
			c-2.264-1.083-4.27-2.599-6.018-4.55c-1.749-1.95-3.107-4.258-4.079-6.927c-2.05-5.634-1.903-11.144,0.441-16.528
			c3.008-6.985,9.046-12.128,18.116-15.43c4.601-1.674,8.855-2.458,12.765-2.353C526.91,612.323,530.653,613.141,534.231,614.671z"
			/>
		<path fill="#FFFFFF" d="M545.868,603.694l48.063-17.493l4.26,11.704l-35.259,12.833l6.553,18.005l32.908-11.978l4.241,11.652
			l-32.908,11.978l7.172,19.705l37.06-13.488l4.26,11.703l-49.863,18.148L545.868,603.694z"/>
		<path fill="#FFFFFF" d="M670.917,568.659l-7.354,12.476c-2.646-1.565-5.511-2.46-8.592-2.679
			c-3.082-0.218-6.174,0.235-9.273,1.364c-4.201,1.529-7.792,4.064-10.771,7.602c-2.979,3.539-4.784,7.708-5.416,12.506
			c-0.632,4.801-0.051,9.667,1.745,14.601c1.76,4.835,4.348,8.783,7.766,11.843c3.417,3.062,7.417,4.947,12,5.658
			c4.582,0.711,8.99,0.296,13.225-1.245c7.002-2.549,11.444-7.356,13.328-14.423l14.27,4.038c-1.372,4.843-3.912,9.249-7.619,13.223
			c-3.709,3.974-8.612,7.071-14.714,9.292c-8.503,3.095-16.361,3.756-23.577,1.982c-7.215-1.772-13.438-5.275-18.663-10.51
			c-4.431-4.391-7.744-9.604-9.94-15.639c-2.598-7.135-3.281-14.229-2.056-21.285c1.229-7.054,4.074-13.187,8.54-18.398
			c4.465-5.213,10.314-9.137,17.551-11.77c4.5-1.639,8.705-2.508,12.614-2.608s7.401,0.288,10.479,1.169
			C666.382,566.365,668.534,567.3,670.917,568.659z"/>
	</g>
</g>
<g>
	<defs>
		<rect id="SVGID_125_" y="-8.04" width="1125" height="1132.5"/>
	</defs>
	<clipPath id="SVGID_24_">
		<use xlink:href="#SVGID_125_"  overflow="visible"/>
	</clipPath>
</g>
</svg>
