<?xml version="1.0" encoding="utf-8"?>
<!-- Generator: Adobe Illustrator 16.0.3, SVG Export Plug-In . SVG Version: 6.00 Build 0)  -->
<!DOCTYPE svg PUBLIC "-//W3C//DTD SVG 1.1//EN" "http://www.w3.org/Graphics/SVG/1.1/DTD/svg11.dtd">
<svg version="1.1" id="Calque_1" xmlns="http://www.w3.org/2000/svg" xmlns:xlink="http://www.w3.org/1999/xlink" x="0px" y="0px"
	 width="1125px" height="1125px" viewBox="0 0 1125 1125" enable-background="new 0 0 1125 1125" xml:space="preserve">
<g>
	<defs>
		<rect id="SVGID_35_" y="-8.04" width="1125" height="1132.5"/>
	</defs>
	<clipPath id="SVGID_2_">
		<use xlink:href="#SVGID_35_"  overflow="visible"/>
	</clipPath>
</g>
<g>
	<defs>
		<rect id="SVGID_37_" y="-8.04" width="1125" height="1132.5"/>
	</defs>
	<clipPath id="SVGID_4_">
		<use xlink:href="#SVGID_37_"  overflow="visible"/>
	</clipPath>
	<g clip-path="url(#SVGID_4_)">
		<defs>
			<rect id="SVGID_39_" y="-8.04" width="1125" height="1125"/>
		</defs>
		<clipPath id="SVGID_6_">
			<use xlink:href="#SVGID_39_"  overflow="visible"/>
		</clipPath>
		<g clip-path="url(#SVGID_6_)">
			<defs>
				
					<rect id="SVGID_41_" x="89.833" y="84.527" transform="matrix(-0.9751 0.2219 -0.2219 -0.9751 1228.4653 970.814)" width="939.75" height="939.75"/>
			</defs>
			<clipPath id="SVGID_8_">
				<use xlink:href="#SVGID_41_"  overflow="visible"/>
			</clipPath>
			<g clip-path="url(#SVGID_8_)">
				<defs>
					
						<rect id="SVGID_43_" x="89.833" y="84.527" transform="matrix(-0.9751 0.2219 -0.2219 -0.9751 1228.4653 970.814)" width="939.75" height="939.75"/>
				</defs>
				<clipPath id="SVGID_10_">
					<use xlink:href="#SVGID_43_"  overflow="visible"/>
				</clipPath>
				<path clip-path="url(#SVGID_10_)" fill="#18D7C8" d="M755.354,981.7c72.663-33.188,136.124-84.977,183.511-149.767
					l-21.559-15.771c-44.693,61.11-104.533,109.943-173.039,141.233c-27.53,12.567-56.546,22.365-86.242,29.122
					c-73.791,16.789-150.91,14.447-223.028-6.773c-76.567-22.534-145.779-65.342-200.15-123.802
					c-52.854-56.826-89.942-127.101-107.254-203.218l-26.049,5.927c18.354,80.699,57.682,155.213,113.733,215.484
					c57.638,61.966,131.002,107.35,212.171,131.231c76.487,22.507,158.267,24.996,236.499,7.196
					C695.42,1005.405,726.173,995.023,755.354,981.7z M190.062,309.971c39.302-59.465,92.854-109.029,154.859-143.335
					l-12.933-23.376c-65.76,36.383-122.544,88.939-164.211,151.981c-40.721,61.588-66.661,132.728-75.019,205.721l26.538,3.042
					C127.179,435.163,151.647,368.071,190.062,309.971z M1017.874,450.164c-10.363-45.551-27.272-89.015-50.243-129.188
					c-29.04-50.787-66.968-95.256-112.733-132.168C742.131,97.877,596.544,64.141,455.46,96.24l5.927,26.046
					c133.063-30.275,270.381,1.55,376.735,87.315c43.168,34.814,78.94,76.746,106.318,124.633
					c21.663,37.882,37.606,78.879,47.385,121.856c10.533,46.297,13.618,93.514,9.171,140.335l26.596,2.522
					C1032.308,549.292,1029.039,499.233,1017.874,450.164z M239.988,320.664l-21.574-15.755
					c-72.22,98.869-98.07,223.993-70.927,343.291l26.046-5.927C148.104,530.515,172.326,413.291,239.988,320.664z M818.902,220.426
					c-89.614-69.489-200.651-99.826-312.659-85.418c-13.462,1.737-27.037,4.151-40.33,7.176l5.927,26.045
					c12.468-2.836,25.19-5.099,37.819-6.729c104.904-13.493,208.909,14.934,292.876,80.037L818.902,220.426z M972.841,644.604
					c13.321-60.884,13.017-122.783-0.909-183.986l-26.046,5.926c13.047,57.344,13.337,115.334,0.862,172.346
					c-24.324,111.061-95.106,206.401-194.195,261.555l13,23.343C871.323,864.902,946.877,763.141,972.841,644.604z M647.568,940.575
					c-94.273,21.45-192.869,7.769-277.608-38.519c-63.92-34.925-116.865-86.514-153.109-149.19l-23.124,13.378
					c38.699,66.908,95.211,121.979,163.425,159.248c90.469,49.412,195.71,64.018,296.341,41.121L647.568,940.575z M476.544,188.903
					c201.859-45.929,402.734,80.481,448.663,282.343c45.929,201.86-80.479,402.737-282.34,448.666
					C441.007,965.84,240.13,839.43,194.201,637.569C148.272,435.707,274.684,234.832,476.544,188.903z"/>
			</g>
		</g>
	</g>
</g>
<g>
	<defs>
		<rect id="SVGID_45_" y="-8.04" width="1125" height="1125"/>
	</defs>
	<clipPath id="SVGID_12_">
		<use xlink:href="#SVGID_45_"  overflow="visible"/>
	</clipPath>
	<g clip-path="url(#SVGID_12_)">
	</g>
	<g clip-path="url(#SVGID_12_)">
	</g>
	<g clip-path="url(#SVGID_12_)">
	</g>
	<g clip-path="url(#SVGID_12_)">
	</g>
	<g clip-path="url(#SVGID_12_)">
	</g>
	<g clip-path="url(#SVGID_12_)">
	</g>
	<g clip-path="url(#SVGID_12_)">
	</g>
	<g clip-path="url(#SVGID_12_)">
	</g>
	<g clip-path="url(#SVGID_12_)">
	</g>
	<g clip-path="url(#SVGID_12_)">
		<path fill="#FFFFFF" d="M229.868,574.883l23.506-8.555c6.002-2.186,10.751-3.348,14.25-3.488c4.619-0.17,8.83,0.949,12.635,3.359
			c3.803,2.41,6.64,6.184,8.509,11.316c1.687,4.635,1.999,9.1,0.938,13.395c-1.063,4.295-3.326,7.902-6.793,10.826
			c-2.655,2.25-7.35,4.602-14.085,7.053l-10.452,3.804l11.031,30.308l-13.054,4.751L229.868,574.883z M254.298,601.391l9.053-3.295
			c2.334-0.85,3.916-1.482,4.746-1.898c1.773-0.834,3.229-1.713,4.365-2.637c1.137-0.922,2.021-1.99,2.656-3.203
			s0.984-2.512,1.047-3.893c0.064-1.383-0.153-2.758-0.65-4.125c-0.838-2.301-2.182-4.049-4.033-5.243
			c-1.851-1.196-4.154-1.688-6.91-1.478c-1.916,0.131-4.924,0.941-9.025,2.435l-8.602,3.131L254.298,601.391z"/>
		<path fill="#FFFFFF" d="M321.046,589.33l11.177,30.707l-13.053,4.751l-26.485-72.769l23.605-8.592
			c5.068-1.844,9.188-3.023,12.362-3.537c3.207-0.525,6.409-0.387,9.608,0.412c3.198,0.799,6.014,2.361,8.445,4.686
			s4.315,5.32,5.65,8.986c1.359,3.734,1.845,7.325,1.455,10.77c-0.388,3.446-1.66,6.563-3.818,9.348
			c-1.561,2.041-3.882,3.963-6.965,5.764l31.005,24.964l-15.604,5.679l-27.931-24.609L321.046,589.33z M316.969,578.127l8.302-3.021
			c5.068-1.846,8.296-3.246,9.685-4.205c2.124-1.527,3.534-3.334,4.229-5.42c0.694-2.082,0.617-4.293-0.232-6.627
			c-0.813-2.232-2.127-3.926-3.943-5.078c-1.816-1.15-3.939-1.643-6.371-1.475c-1.77,0.115-4.522,0.854-8.256,2.211l-10.604,3.859
			L316.969,578.127z"/>
		<path fill="#FFFFFF" d="M443.708,539.02c2.111,5.803,2.863,11.758,2.256,17.871c-0.729,7.854-3.325,14.67-7.793,20.449
			c-4.466,5.779-10.801,10.162-19.002,13.147c-13.438,4.891-25.312,4.115-35.623-2.327c-8.062-5.031-13.792-12.217-17.19-21.553
			c-2.438-6.701-3.239-13.414-2.402-20.139c0.665-5.227,2.244-9.991,4.736-14.297c2.492-4.305,5.557-7.895,9.194-10.766
			c3.637-2.871,8.056-5.254,13.257-7.147c6.302-2.294,12.086-3.285,17.353-2.974c5.268,0.311,10.137,1.576,14.609,3.801
			c4.471,2.224,8.48,5.277,12.027,9.158C438.676,528.127,441.536,533.053,443.708,539.02z M430.132,543.734
			c-1.857-5.1-4.619-9.314-8.284-12.645c-3.667-3.328-7.914-5.352-12.743-6.066s-9.478-0.26-13.945,1.365
			c-4.401,1.603-8.169,4.219-11.302,7.852c-3.134,3.633-5.06,7.809-5.778,12.525c-0.718,4.717-0.168,9.576,1.652,14.578
			c1.869,5.135,4.579,9.311,8.13,12.531c3.551,3.22,7.619,5.269,12.206,6.148c4.587,0.879,9.298,0.439,14.132-1.32
			c7.269-2.646,12.418-7.275,15.447-13.893C432.676,558.195,432.838,551.17,430.132,543.734z"/>
		<path fill="#FFFFFF" d="M442.572,497.465l21.306-7.755c7.402-2.694,13.323-4.319,17.764-4.88c4.486-0.537,8.797-0.341,12.93,0.59
			c4.134,0.932,7.941,2.547,11.422,4.849s6.479,5.118,8.994,8.45s4.532,7.082,6.049,11.25c1.832,5.035,2.682,9.908,2.547,14.621
			c-0.136,4.713-0.965,9.072-2.488,13.082c-1.524,4.01-3.504,7.439-5.94,10.289c-1.643,1.92-3.714,3.75-6.214,5.49
			c-4.716,3.228-10.008,5.908-15.876,8.045l-24.007,8.736L442.572,497.465z M477.853,553.779l8.651-3.148
			c6.602-2.403,11.501-5.074,14.698-8.012c3.998-3.645,6.484-7.863,7.459-12.655s0.496-9.838-1.434-15.14
			c-1.832-5.033-4.587-9.025-8.265-11.973c-3.679-2.945-7.91-4.588-12.695-4.922c-4.785-0.336-10.628,0.753-17.53,3.266
			l-8.852,3.221L477.853,553.779z"/>
		<path fill="#FFFFFF" d="M532.896,464.59l14.927,41.01c1.42,3.902,2.571,6.598,3.453,8.09c1.295,2.209,3.027,4.09,5.196,5.641
			c2.17,1.552,4.656,2.469,7.459,2.751s5.504-0.05,8.105-0.995c2.533-0.923,4.734-2.318,6.603-4.189
			c1.868-1.867,3.173-4.042,3.913-6.521c0.741-2.477,0.955-4.924,0.641-7.341c-0.23-1.879-1.086-4.853-2.566-8.921l-15.072-41.41
			l12.803-4.66l14.107,38.76c1.82,5.002,2.981,8.656,3.482,10.967c0.965,4.104,1.241,7.949,0.828,11.535
			c-0.412,3.588-1.469,6.936-3.168,10.047c-1.699,3.109-3.931,5.801-6.691,8.07s-6.409,4.23-10.942,5.88
			c-4.669,1.699-9.202,2.442-13.603,2.232c-4.4-0.212-8.417-1.392-12.051-3.544c-3.635-2.15-6.642-4.889-9.021-8.213
			c-2.381-3.325-4.772-8.289-7.176-14.891l-14.38-39.51L532.896,464.59z"/>
		<path fill="#FFFFFF" d="M656.444,430.1l-7.354,12.475c-2.647-1.566-5.512-2.459-8.593-2.678s-6.173,0.236-9.272,1.365
			c-4.201,1.528-7.792,4.063-10.771,7.602c-2.979,3.539-4.784,7.707-5.417,12.506c-0.632,4.799-0.051,9.666,1.746,14.6
			c1.76,4.835,4.348,8.783,7.766,11.844c3.417,3.061,7.416,4.945,11.999,5.656s8.99,0.297,13.226-1.244
			c7.002-2.549,11.443-7.355,13.327-14.424l14.27,4.039c-1.372,4.842-3.911,9.249-7.618,13.223
			c-3.709,3.973-8.613,7.07-14.715,9.291c-8.502,3.096-16.361,3.756-23.576,1.984c-7.215-1.773-13.438-5.277-18.664-10.511
			c-4.431-4.392-7.743-9.604-9.939-15.64c-2.598-7.135-3.282-14.229-2.056-21.283c1.228-7.055,4.073-13.188,8.539-18.4
			c4.465-5.213,10.314-9.135,17.551-11.77c4.5-1.637,8.706-2.508,12.614-2.608c3.909-0.101,7.402,0.288,10.479,1.17
			C651.908,427.805,654.061,428.74,656.444,430.1z"/>
		<path fill="#FFFFFF" d="M676.833,412.201l26.485,72.768l-13.103,4.77l-26.486-72.769L676.833,412.201z"/>
		<path fill="#FFFFFF" d="M709.741,400.223l45.399,34.168c3.839,2.869,7.791,6.623,11.857,11.26
			c-2.499-5.623-4.508-10.518-6.024-14.686l-15.873-43.611l12.754-4.643l26.485,72.77l-16.506,6.006l-44.743-33.611
			c-1.867-1.396-4.171-3.314-6.909-5.755c-1.763-1.624-3.824-3.763-6.187-6.415c1.456,3.172,3.344,7.941,5.662,14.309l16.219,44.562
			l-12.753,4.642l-26.485-72.769L709.741,400.223z"/>
		<path fill="#FFFFFF" d="M839.654,361.434l-5.743,13.475c-6.447-2.977-13.271-3.156-20.472-0.534
			c-4.701,1.712-8.708,4.396-12.021,8.056c-3.312,3.66-5.334,7.832-6.064,12.516s-0.197,9.494,1.598,14.428
			c1.809,4.969,4.564,9.092,8.269,12.367c3.704,3.279,7.986,5.241,12.848,5.888c4.86,0.647,9.875,0.03,15.043-1.851
			c2.634-0.959,5.179-2.215,7.634-3.77c2.455-1.553,4.533-3.207,6.237-4.96l-6.08-16.704l-14.354,5.224l-4.259-11.702l27.156-9.885
			l13.434,36.909c-7.273,7.821-15.895,13.545-25.863,17.173c-9.07,3.301-17.214,4.162-24.435,2.578
			c-7.223-1.58-13.29-4.791-18.203-9.629c-4.914-4.838-8.506-10.375-10.774-16.609c-2.549-7.002-3.265-14.076-2.146-21.223
			c1.118-7.148,4.105-13.465,8.961-18.951c4.857-5.486,11.203-9.656,19.039-12.508c6.001-2.185,11.742-3.217,17.223-3.098
			C830.836,358.734,835.161,359.672,839.654,361.434z"/>
		<path fill="#FFFFFF" d="M537.917,608.695l-5.894,12.906c-2.104-1.424-4.413-2.217-6.926-2.377
			c-2.514-0.162-5.054,0.225-7.62,1.159c-4.002,1.456-6.746,3.513-8.233,6.169s-1.753,5.301-0.794,7.934
			c0.619,1.701,1.626,3.043,3.023,4.025c1.396,0.984,3.254,1.602,5.572,1.852c1.756,0.154,5.316,0.133,10.682-0.064
			s9.199-0.092,11.5,0.316c3.632,0.643,6.824,2.049,9.577,4.218c2.753,2.17,4.858,5.255,6.314,9.257
			c2.415,6.635,2.058,12.967-1.072,18.994c-3.13,6.03-8.996,10.609-17.598,13.74c-5.169,1.881-10.047,2.666-14.634,2.354
			c-4.589-0.313-8.717-1.463-12.386-3.451l6.28-12.934c2.678,1.859,5.514,2.96,8.509,3.305c2.995,0.344,5.926-0.006,8.794-1.049
			c3.9-1.42,6.629-3.545,8.186-6.378c1.555-2.831,1.848-5.581,0.877-8.249c-0.68-1.865-1.738-3.322-3.176-4.366
			c-1.437-1.043-3.118-1.669-5.043-1.874c-1.17-0.102-4.396-0.098-9.681,0.012c-5.283,0.111-8.804,0.09-10.558-0.064
			c-3.175-0.318-5.894-1.018-8.156-2.102c-2.264-1.082-4.27-2.599-6.018-4.549c-1.749-1.951-3.107-4.258-4.079-6.928
			c-2.05-5.633-1.903-11.144,0.441-16.527c3.008-6.986,9.046-12.129,18.116-15.43c4.601-1.674,8.855-2.459,12.765-2.354
			C530.596,606.348,534.339,607.166,537.917,608.695z"/>
		<path fill="#FFFFFF" d="M549.554,597.719l48.063-17.492l4.26,11.703l-35.259,12.834l6.553,18.004l32.908-11.977l4.241,11.652
			l-32.908,11.977l7.172,19.705l37.06-13.488l4.26,11.703l-49.863,18.148L549.554,597.719z"/>
		<path fill="#FFFFFF" d="M674.603,562.684l-7.354,12.477c-2.646-1.566-5.511-2.461-8.592-2.68
			c-3.082-0.218-6.174,0.236-9.273,1.365c-4.201,1.528-7.792,4.064-10.771,7.602c-2.979,3.539-4.784,7.707-5.416,12.506
			c-0.632,4.8-0.051,9.666,1.745,14.6c1.76,4.836,4.348,8.783,7.766,11.844c3.417,3.061,7.417,4.947,12,5.657
			c4.582,0.712,8.99,0.296,13.225-1.245c7.002-2.549,11.444-7.355,13.328-14.422l14.27,4.037c-1.372,4.843-3.912,9.25-7.619,13.223
			c-3.709,3.975-8.612,7.072-14.714,9.293c-8.503,3.094-16.361,3.756-23.577,1.982c-7.215-1.773-13.438-5.275-18.663-10.51
			c-4.431-4.391-7.744-9.604-9.94-15.639c-2.598-7.135-3.281-14.23-2.056-21.285c1.229-7.055,4.074-13.188,8.54-18.399
			c4.465-5.212,10.314-9.136,17.551-11.769c4.5-1.639,8.705-2.508,12.614-2.609c3.909-0.101,7.401,0.289,10.479,1.17
			C670.067,560.391,672.22,561.324,674.603,562.684z"/>
	</g>
</g>
</svg>
