<?xml version="1.0" encoding="utf-8"?>
<!-- Generator: Adobe Illustrator 16.0.3, SVG Export Plug-In . SVG Version: 6.00 Build 0)  -->
<!DOCTYPE svg PUBLIC "-//W3C//DTD SVG 1.1//EN" "http://www.w3.org/Graphics/SVG/1.1/DTD/svg11.dtd">
<svg version="1.1" id="Calque_1" xmlns="http://www.w3.org/2000/svg" xmlns:xlink="http://www.w3.org/1999/xlink" x="0px" y="0px"
	 width="1125px" height="1125px" viewBox="0 0 1125 1125" enable-background="new 0 0 1125 1125" xml:space="preserve">
<g>
	<defs>
		<rect id="SVGID_151_" x="1.984" y="-9.04" width="1125" height="1132.5"/>
	</defs>
	<clipPath id="SVGID_2_">
		<use xlink:href="#SVGID_151_"  overflow="visible"/>
	</clipPath>
</g>
<g>
	<defs>
		<rect id="SVGID_153_" x="1.984" y="-9.04" width="1125" height="1125"/>
	</defs>
	<clipPath id="SVGID_4_">
		<use xlink:href="#SVGID_153_"  overflow="visible"/>
	</clipPath>
	<g clip-path="url(#SVGID_4_)">
	</g>
	<g clip-path="url(#SVGID_4_)">
	</g>
	<g clip-path="url(#SVGID_4_)">
	</g>
	<g clip-path="url(#SVGID_4_)">
	</g>
	<g clip-path="url(#SVGID_4_)">
	</g>
	<g clip-path="url(#SVGID_4_)">
	</g>
	<g clip-path="url(#SVGID_4_)">
	</g>
	<g clip-path="url(#SVGID_4_)">
	</g>
	<g clip-path="url(#SVGID_4_)">
	</g>
</g>
<g>
	<defs>
		<rect id="SVGID_155_" x="1.984" y="-9.04" width="1125" height="1132.5"/>
	</defs>
	<clipPath id="SVGID_6_">
		<use xlink:href="#SVGID_155_"  overflow="visible"/>
	</clipPath>
</g>
<g>
	<defs>
		<rect id="SVGID_157_" x="1.984" y="-9.04" width="1125" height="1132.5"/>
	</defs>
	<clipPath id="SVGID_8_">
		<use xlink:href="#SVGID_157_"  overflow="visible"/>
	</clipPath>
</g>
<g>
	<defs>
		<rect id="SVGID_159_" x="1.984" y="-9.04" width="1125" height="1125"/>
	</defs>
	<clipPath id="SVGID_10_">
		<use xlink:href="#SVGID_159_"  overflow="visible"/>
	</clipPath>
	<g clip-path="url(#SVGID_10_)">
	</g>
	<g clip-path="url(#SVGID_10_)">
	</g>
	<g clip-path="url(#SVGID_10_)">
	</g>
	<g clip-path="url(#SVGID_10_)">
	</g>
	<g clip-path="url(#SVGID_10_)">
	</g>
	<g clip-path="url(#SVGID_10_)">
	</g>
	<g clip-path="url(#SVGID_10_)">
	</g>
	<g clip-path="url(#SVGID_10_)">
	</g>
	<g clip-path="url(#SVGID_10_)">
	</g>
</g>
<g>
	<defs>
		<rect id="SVGID_161_" y="-8.04" width="1125" height="1132.5"/>
	</defs>
	<clipPath id="SVGID_12_">
		<use xlink:href="#SVGID_161_"  overflow="visible"/>
	</clipPath>
</g>
<g>
	<defs>
		<rect id="SVGID_163_" y="-8.04" width="1125" height="1132.5"/>
	</defs>
	<clipPath id="SVGID_14_">
		<use xlink:href="#SVGID_163_"  overflow="visible"/>
	</clipPath>
	<g clip-path="url(#SVGID_14_)">
		<defs>
			<rect id="SVGID_165_" y="-8.04" width="1125" height="1125"/>
		</defs>
		<clipPath id="SVGID_16_">
			<use xlink:href="#SVGID_165_"  overflow="visible"/>
		</clipPath>
		<g clip-path="url(#SVGID_16_)">
			<defs>
				<polygon id="SVGID_167_" points="0,214.662 916.331,4.848 1124.82,926.998 208.489,1136.812 				"/>
			</defs>
			<clipPath id="SVGID_18_">
				<use xlink:href="#SVGID_167_"  overflow="visible"/>
			</clipPath>
			<g clip-path="url(#SVGID_18_)">
				<defs>
					<polygon id="SVGID_169_" points="0,214.662 916.331,4.848 1124.82,926.998 208.489,1136.812 					"/>
				</defs>
				<clipPath id="SVGID_20_">
					<use xlink:href="#SVGID_169_"  overflow="visible"/>
				</clipPath>
				<path clip-path="url(#SVGID_20_)" fill="#EB741F" d="M758.057,1000.841c72.663-33.397,136.124-85.516,183.511-150.717
					l-21.559-15.871C875.315,895.75,815.476,944.895,746.97,976.382c-27.53,12.648-56.546,22.508-86.242,29.309
					c-73.791,16.896-150.91,14.539-223.028-6.816c-76.567-22.679-145.779-65.757-200.15-124.59
					c-52.854-57.187-89.942-127.906-107.254-204.507l-26.049,5.963c18.354,81.212,57.682,156.199,113.733,216.854
					c57.638,62.36,131.002,108.031,212.171,132.065c76.487,22.649,158.267,25.155,236.499,7.241
					C698.122,1024.696,728.875,1014.25,758.057,1000.841z M192.764,324.846c39.302-59.842,92.854-109.722,154.859-144.245
					l-12.933-23.524c-65.76,36.614-122.544,89.504-164.211,152.947c-40.721,61.979-66.661,133.57-75.019,207.027l26.538,3.061
					C129.881,450.834,154.35,383.315,192.764,324.846z M1020.576,465.93c-10.363-45.84-27.272-89.58-50.243-130.008
					c-29.04-51.109-66.968-95.86-112.733-133.007c-112.767-91.509-258.354-125.461-399.438-93.157l5.927,26.212
					c133.063-30.468,270.381,1.56,376.735,87.87c43.168,35.035,78.94,77.233,106.318,125.424
					c21.663,38.123,37.606,79.38,47.385,122.631c10.533,46.591,13.618,94.106,9.171,141.227l26.596,2.537
					C1035.01,565.687,1031.741,515.311,1020.576,465.93z M242.69,335.607l-21.574-15.855
					c-72.22,99.498-98.07,225.416-70.927,345.471l26.046-5.963C150.807,546.791,175.028,428.822,242.69,335.607z M821.604,234.732
					c-89.614-69.931-200.651-100.461-312.659-85.961c-13.462,1.749-27.037,4.178-40.33,7.222l5.927,26.211
					c12.468-2.854,25.19-5.132,37.819-6.771c104.904-13.579,208.909,15.028,292.876,80.545L821.604,234.732z M975.543,661.604
					c13.321-61.271,13.017-123.563-0.909-185.155l-26.046,5.964c13.047,57.708,13.337,116.066,0.862,173.44
					c-24.324,111.766-95.106,207.711-194.195,263.216l13,23.49C874.025,883.303,949.579,780.895,975.543,661.604z M650.271,959.455
					c-94.273,21.587-192.869,7.818-277.608-38.763c-63.92-35.147-116.865-87.063-153.109-150.139l-23.124,13.464
					c38.699,67.333,95.211,122.753,163.425,160.26c90.469,49.726,195.71,64.424,296.341,41.382L650.271,959.455z M479.246,203.01
					c201.859-46.22,402.734,80.992,448.663,284.136c45.929,203.142-80.479,405.295-282.34,451.517
					c-201.86,46.219-402.737-80.994-448.666-284.138S277.386,249.23,479.246,203.01z"/>
			</g>
		</g>
	</g>
</g>
<g>
	<defs>
		<rect id="SVGID_171_" x="2.857" y="3.389" width="1125" height="1125"/>
	</defs>
	<clipPath id="SVGID_22_">
		<use xlink:href="#SVGID_171_"  overflow="visible"/>
	</clipPath>
	<g clip-path="url(#SVGID_22_)">
	</g>
	<g clip-path="url(#SVGID_22_)">
	</g>
	<g clip-path="url(#SVGID_22_)">
	</g>
	<g clip-path="url(#SVGID_22_)">
	</g>
	<g clip-path="url(#SVGID_22_)">
	</g>
	<g clip-path="url(#SVGID_22_)">
	</g>
	<g clip-path="url(#SVGID_22_)">
	</g>
	<g clip-path="url(#SVGID_22_)">
	</g>
	<g clip-path="url(#SVGID_22_)">
	</g>
	<g clip-path="url(#SVGID_22_)">
		<path fill="#FFFFFF" d="M198.284,590.617l21.781-7.928c5.561-2.023,9.962-3.101,13.203-3.231c4.28-0.157,8.184,0.879,11.709,3.112
			c3.523,2.233,6.152,5.729,7.883,10.487c1.563,4.295,1.854,8.431,0.87,12.41c-0.984,3.979-3.081,7.323-6.294,10.032
			c-2.461,2.085-6.811,4.263-13.051,6.534l-9.686,3.524l10.221,28.084l-12.095,4.402L198.284,590.617z M220.921,615.179l8.389-3.053
			c2.162-0.787,3.628-1.373,4.398-1.759c1.643-0.772,2.991-1.587,4.043-2.442c1.054-0.855,1.875-1.845,2.463-2.969
			s0.911-2.326,0.97-3.607s-0.142-2.554-0.604-3.821c-0.776-2.132-2.021-3.752-3.737-4.858c-1.715-1.108-3.849-1.564-6.402-1.37
			c-1.775,0.121-4.563,0.873-8.363,2.257l-7.971,2.901L220.921,615.179z"/>
		<path fill="#FFFFFF" d="M282.771,604.004l10.356,28.453l-12.096,4.402l-24.542-67.428l21.874-7.961
			c4.696-1.709,8.515-2.801,11.455-3.277c2.972-0.486,5.939-0.359,8.903,0.381c2.963,0.741,5.572,2.188,7.825,4.342
			c2.253,2.154,3.999,4.93,5.235,8.328c1.26,3.461,1.709,6.787,1.349,9.979c-0.358,3.192-1.538,6.079-3.538,8.661
			c-1.446,1.891-3.598,3.672-6.453,5.341l28.729,23.131l-14.459,5.263l-25.881-22.804L282.771,604.004z M278.992,593.623l7.692-2.8
			c4.696-1.709,7.688-3.008,8.974-3.896c1.969-1.416,3.275-3.09,3.919-5.021c0.645-1.932,0.573-3.979-0.214-6.142
			c-0.753-2.069-1.973-3.638-3.655-4.705s-3.65-1.522-5.903-1.368c-1.64,0.107-4.191,0.791-7.65,2.051l-9.825,3.576L278.992,593.623
			z"/>
		<path fill="#FFFFFF" d="M396.429,557.387c1.957,5.376,2.654,10.896,2.091,16.558c-0.675,7.278-3.081,13.595-7.22,18.95
			c-4.14,5.354-10.009,9.416-17.608,12.182c-12.451,4.532-23.454,3.813-33.009-2.156c-7.47-4.662-12.779-11.319-15.928-19.971
			c-2.261-6.21-3.002-12.429-2.227-18.66c0.617-4.843,2.08-9.259,4.389-13.248c2.31-3.989,5.149-7.313,8.519-9.976
			c3.369-2.66,7.465-4.868,12.284-6.623c5.84-2.125,11.199-3.044,16.08-2.756c4.88,0.288,9.393,1.462,13.536,3.522
			s7.859,4.891,11.145,8.486C391.767,547.294,394.417,551.857,396.429,557.387z M383.85,561.756
			c-1.721-4.727-4.279-8.633-7.676-11.717c-3.397-3.085-7.334-4.959-11.808-5.622c-4.476-0.663-8.783-0.241-12.922,1.266
			c-4.078,1.484-7.57,3.909-10.473,7.275c-2.904,3.366-4.688,7.235-5.354,11.605c-0.666,4.371-0.156,8.873,1.531,13.508
			c1.731,4.758,4.242,8.628,7.532,11.611c3.29,2.984,7.06,4.883,11.311,5.698c4.25,0.814,8.614,0.406,13.095-1.225
			c6.734-2.451,11.507-6.741,14.313-12.871S386.357,568.646,383.85,561.756z"/>
		<path fill="#FFFFFF" d="M441.302,502.166l3.947,10.844l-20.438,7.438l20.596,56.584l-12.096,4.402l-20.595-56.584l-20.205,7.354
			l-3.946-10.845L441.302,502.166z"/>
		<path fill="#FFFFFF" d="M529.94,508.792c1.957,5.376,2.654,10.896,2.091,16.559c-0.675,7.278-3.081,13.595-7.221,18.949
			c-4.139,5.354-10.008,9.416-17.607,12.183c-12.451,4.531-23.454,3.813-33.009-2.156c-7.47-4.663-12.779-11.32-15.928-19.971
			c-2.261-6.211-3.002-12.43-2.227-18.661c0.617-4.843,2.08-9.259,4.389-13.248s5.148-7.313,8.519-9.976
			c3.369-2.66,7.465-4.868,12.284-6.623c5.84-2.125,11.199-3.043,16.08-2.756c4.88,0.289,9.393,1.463,13.536,3.523
			s7.859,4.89,11.145,8.486C525.278,498.699,527.929,503.263,529.94,508.792z M517.361,513.161
			c-1.721-4.727-4.279-8.632-7.676-11.717c-3.397-3.085-7.334-4.958-11.808-5.622c-4.476-0.662-8.783-0.24-12.922,1.266
			c-4.078,1.484-7.57,3.91-10.473,7.275c-2.904,3.366-4.688,7.235-5.354,11.605c-0.665,4.371-0.155,8.873,1.532,13.508
			c1.731,4.758,4.242,8.629,7.532,11.611c3.29,2.984,7.06,4.883,11.311,5.698c4.25,0.814,8.614,0.407,13.095-1.224
			c6.734-2.451,11.507-6.742,14.313-12.872S519.869,520.051,517.361,513.161z"/>
		<path fill="#FFFFFF" d="M574.813,453.571l3.947,10.845l-20.437,7.438l20.595,56.584l-12.097,4.402l-20.595-56.583l-20.204,7.354
			l-3.946-10.845L574.813,453.571z"/>
		<path fill="#FFFFFF" d="M625.77,478.795l10.475,28.777l-12.142,4.42l-10.475-28.778l-39.185-29.508l14.922-5.431l20.128,16.08
			l3.316,2.624c0.81,0.686,1.924,1.68,3.342,2.982c0.283-2.972,0.684-5.671,1.198-8.099l5.335-25.716l14.273-5.194L625.77,478.795z"
			/>
		<path fill="#FFFFFF" d="M642.845,428.811l21.78-7.928c5.562-2.024,9.962-3.102,13.204-3.231c4.28-0.158,8.182,0.879,11.708,3.112
			c3.522,2.233,6.151,5.729,7.884,10.486c1.563,4.295,1.853,8.432,0.869,12.41c-0.984,3.98-3.081,7.324-6.294,10.033
			c-2.46,2.084-6.811,4.263-13.051,6.533l-9.685,3.525l10.221,28.084l-12.096,4.402L642.845,428.811z M665.481,453.371l8.389-3.053
			c2.161-0.786,3.627-1.373,4.397-1.758c1.643-0.772,2.991-1.587,4.044-2.443c1.054-0.854,1.874-1.844,2.462-2.969
			c0.588-1.123,0.912-2.326,0.97-3.606c0.06-1.281-0.142-2.554-0.604-3.821c-0.775-2.133-2.021-3.752-3.736-4.859
			c-1.715-1.107-3.85-1.564-6.402-1.37c-1.775,0.122-4.563,0.874-8.363,2.257l-7.971,2.901L665.481,453.371z"/>
		<path fill="#FFFFFF" d="M712.589,403.426l24.542,67.428l-12.142,4.419l-24.542-67.428L712.589,403.426z"/>
		<path fill="#FFFFFF" d="M743.081,392.327l42.068,31.659c3.557,2.659,7.219,6.137,10.986,10.434
			c-2.315-5.21-4.177-9.745-5.582-13.607l-14.709-40.41l11.818-4.302l24.542,67.428l-15.294,5.566l-41.46-31.146
			c-1.73-1.294-3.865-3.072-6.402-5.332c-1.632-1.506-3.544-3.486-5.731-5.943c1.35,2.938,3.098,7.356,5.245,13.258l15.029,41.29
			l-11.817,4.302l-24.541-67.428L743.081,392.327z"/>
		<path fill="#FFFFFF" d="M863.459,356.385l-5.321,12.486c-5.974-2.76-12.296-2.925-18.969-0.496
			c-4.356,1.586-8.068,4.074-11.139,7.465c-3.068,3.393-4.941,7.257-5.619,11.598c-0.677,4.34-0.184,8.796,1.48,13.368
			c1.676,4.604,4.229,8.424,7.661,11.46c3.433,3.037,7.4,4.855,11.905,5.455c4.504,0.6,9.15,0.028,13.938-1.715
			c2.441-0.889,4.798-2.053,7.074-3.492c2.274-1.44,4.2-2.973,5.779-4.598l-5.634-15.478l-13.3,4.841l-3.947-10.844l25.164-9.159
			l12.448,34.2c-6.74,7.247-14.729,12.551-23.966,15.912c-8.403,3.06-15.95,3.856-22.642,2.39
			c-6.691-1.466-12.314-4.438-16.867-8.923c-4.554-4.482-7.881-9.613-9.983-15.391c-2.362-6.487-3.024-13.043-1.989-19.665
			c1.036-6.622,3.805-12.476,8.304-17.56c4.501-5.084,10.38-8.947,17.641-11.59c5.562-2.024,10.881-2.98,15.96-2.87
			C855.289,353.884,859.296,354.752,863.459,356.385z"/>
		<path fill="#FFFFFF" d="M533.798,603.724l-5.461,11.959c-1.95-1.319-4.09-2.054-6.418-2.203c-2.329-0.15-4.683,0.208-7.061,1.074
			c-3.708,1.35-6.251,3.255-7.629,5.716c-1.38,2.461-1.624,4.912-0.736,7.352c0.574,1.576,1.508,2.82,2.801,3.73
			c1.295,0.912,3.016,1.482,5.164,1.715c1.627,0.144,4.926,0.124,9.898-0.06c4.971-0.183,8.523-0.084,10.655,0.294
			c3.365,0.596,6.323,1.897,8.874,3.907c2.551,2.011,4.502,4.87,5.852,8.577c2.237,6.148,1.906,12.016-0.994,17.602
			c-2.899,5.588-8.335,9.83-16.306,12.731c-4.79,1.743-9.31,2.47-13.56,2.181c-4.253-0.29-8.078-1.355-11.477-3.197l5.818-11.984
			c2.481,1.722,5.109,2.742,7.885,3.061c2.775,0.32,5.491-0.004,8.148-0.971c3.614-1.316,6.143-3.286,7.585-5.91
			c1.44-2.624,1.712-5.171,0.813-7.644c-0.63-1.729-1.611-3.077-2.942-4.046c-1.331-0.966-2.891-1.546-4.673-1.737
			c-1.084-0.095-4.074-0.09-8.97,0.013c-4.896,0.103-8.158,0.082-9.784-0.061c-2.94-0.295-5.46-0.943-7.558-1.947
			c-2.097-1.002-3.955-2.408-5.575-4.215c-1.62-1.808-2.88-3.947-3.779-6.419c-1.9-5.221-1.764-10.326,0.409-15.315
			c2.787-6.473,8.382-11.238,16.785-14.297c4.264-1.552,8.207-2.277,11.828-2.18C527.015,601.548,530.482,602.307,533.798,603.724z"
			/>
		<path fill="#FFFFFF" d="M544.581,593.553l44.535-16.209l3.947,10.845l-32.672,11.892l6.072,16.684l30.494-11.1l3.93,10.797
			l-30.494,11.1l6.646,18.259l34.341-12.499l3.947,10.844l-46.204,16.817L544.581,593.553z"/>
		<path fill="#FFFFFF" d="M660.452,561.089l-6.813,11.56c-2.453-1.451-5.107-2.278-7.962-2.482
			c-2.855-0.201-5.721,0.219-8.593,1.265c-3.894,1.417-7.22,3.766-9.98,7.044c-2.761,3.279-4.433,7.143-5.019,11.588
			c-0.586,4.447-0.047,8.957,1.617,13.528c1.631,4.48,4.029,8.139,7.196,10.975c3.165,2.836,6.872,4.584,11.118,5.242
			c4.246,0.659,8.331,0.274,12.255-1.153c6.488-2.362,10.604-6.816,12.351-13.364l13.221,3.741
			c-1.271,4.486-3.624,8.571-7.06,12.252c-3.437,3.683-7.98,6.553-13.634,8.61c-7.878,2.867-15.16,3.48-21.847,1.838
			c-6.686-1.643-12.45-4.89-17.294-9.739c-4.105-4.068-7.175-8.898-9.211-14.49c-2.406-6.611-3.041-13.187-1.904-19.724
			c1.139-6.536,3.774-12.219,7.913-17.049c4.137-4.83,9.558-8.465,16.263-10.905c4.17-1.518,8.066-2.323,11.688-2.417
			s6.858,0.268,9.71,1.084C656.248,558.963,658.243,559.829,660.452,561.089z"/>
	</g>
</g>
<g>
	<defs>
		<rect id="SVGID_173_" y="-8.04" width="1125" height="1132.5"/>
	</defs>
	<clipPath id="SVGID_24_">
		<use xlink:href="#SVGID_173_"  overflow="visible"/>
	</clipPath>
</g>
</svg>
